<?xml version="1.0" encoding="UTF-8" standalone="no"?>
<!DOCTYPE svg PUBLIC "-//W3C//DTD SVG 1.1//EN"
 "http://www.w3.org/Graphics/SVG/1.1/DTD/svg11.dtd">
<!-- Generated by graphviz version 2.43.0 (0)
 -->
<!-- Title: %3 Pages: 1 -->
<svg width="1365pt" height="156pt"
 viewBox="0.00 0.00 1365.00 156.00" xmlns="http://www.w3.org/2000/svg" xmlns:xlink="http://www.w3.org/1999/xlink">
<g id="graph0" class="graph" transform="scale(1 1) rotate(0) translate(4 152)">
<title>%3</title>
<polygon fill="white" stroke="transparent" points="-4,4 -4,-152 1361,-152 1361,4 -4,4"/>
<!-- 140180231414272 -->
<g id="node1" class="node">
<title>140180231414272</title>
<polygon fill="none" stroke="black" points="1112,-27.5 1112,-63.5 1357,-63.5 1357,-27.5 1112,-27.5"/>
<text text-anchor="middle" x="1125" y="-41.8" font-family="Times,serif" font-size="14.00">L</text>
<polyline fill="none" stroke="black" points="1138,-27.5 1138,-63.5 "/>
<text text-anchor="middle" x="1193.5" y="-41.8" font-family="Times,serif" font-size="14.00">data: &#45;8.0000</text>
<polyline fill="none" stroke="black" points="1249,-27.5 1249,-63.5 "/>
<text text-anchor="middle" x="1303" y="-41.8" font-family="Times,serif" font-size="14.00">grad: 0.0000</text>
</g>
<!-- 140180231414272* -->
<g id="node2" class="node">
<title>140180231414272*</title>
<ellipse fill="none" stroke="black" cx="1049" cy="-45.5" rx="27" ry="18"/>
<text text-anchor="middle" x="1049" y="-41.8" font-family="Times,serif" font-size="14.00">*</text>
</g>
<!-- 140180231414272*&#45;&gt;140180231414272 -->
<g id="edge1" class="edge">
<title>140180231414272*&#45;&gt;140180231414272</title>
<path fill="none" stroke="black" d="M1076.29,-45.5C1083.79,-45.5 1092.51,-45.5 1101.93,-45.5"/>
<polygon fill="black" stroke="black" points="1101.97,-49 1111.97,-45.5 1101.97,-42 1101.97,-49"/>
</g>
<!-- 140180233338400 -->
<g id="node3" class="node">
<title>140180233338400</title>
<polygon fill="none" stroke="black" points="0,-111.5 0,-147.5 245,-147.5 245,-111.5 0,-111.5"/>
<text text-anchor="middle" x="13" y="-125.8" font-family="Times,serif" font-size="14.00">b</text>
<polyline fill="none" stroke="black" points="26,-111.5 26,-147.5 "/>
<text text-anchor="middle" x="81.5" y="-125.8" font-family="Times,serif" font-size="14.00">data: &#45;3.0000</text>
<polyline fill="none" stroke="black" points="137,-111.5 137,-147.5 "/>
<text text-anchor="middle" x="191" y="-125.8" font-family="Times,serif" font-size="14.00">grad: 0.0000</text>
</g>
<!-- 140180231414032* -->
<g id="node5" class="node">
<title>140180231414032*</title>
<ellipse fill="none" stroke="black" cx="308" cy="-101.5" rx="27" ry="18"/>
<text text-anchor="middle" x="308" y="-97.8" font-family="Times,serif" font-size="14.00">*</text>
</g>
<!-- 140180233338400&#45;&gt;140180231414032* -->
<g id="edge6" class="edge">
<title>140180233338400&#45;&gt;140180231414032*</title>
<path fill="none" stroke="black" d="M241.53,-111.49C252.23,-109.86 262.41,-108.3 271.42,-106.93"/>
<polygon fill="black" stroke="black" points="272.05,-110.37 281.41,-105.4 271,-103.45 272.05,-110.37"/>
</g>
<!-- 140180231414032 -->
<g id="node4" class="node">
<title>140180231414032</title>
<polygon fill="none" stroke="black" points="373,-83.5 373,-119.5 617,-119.5 617,-83.5 373,-83.5"/>
<text text-anchor="middle" x="385.5" y="-97.8" font-family="Times,serif" font-size="14.00">e</text>
<polyline fill="none" stroke="black" points="398,-83.5 398,-119.5 "/>
<text text-anchor="middle" x="453.5" y="-97.8" font-family="Times,serif" font-size="14.00">data: &#45;6.0000</text>
<polyline fill="none" stroke="black" points="509,-83.5 509,-119.5 "/>
<text text-anchor="middle" x="563" y="-97.8" font-family="Times,serif" font-size="14.00">grad: 0.0000</text>
</g>
<!-- 140180231414080+ -->
<g id="node7" class="node">
<title>140180231414080+</title>
<ellipse fill="none" stroke="black" cx="682" cy="-73.5" rx="27" ry="18"/>
<text text-anchor="middle" x="682" y="-69.8" font-family="Times,serif" font-size="14.00">+</text>
</g>
<!-- 140180231414032&#45;&gt;140180231414080+ -->
<g id="edge4" class="edge">
<title>140180231414032&#45;&gt;140180231414080+</title>
<path fill="none" stroke="black" d="M614.99,-83.49C625.88,-81.84 636.24,-80.27 645.38,-78.89"/>
<polygon fill="black" stroke="black" points="646.15,-82.31 655.52,-77.36 645.11,-75.39 646.15,-82.31"/>
</g>
<!-- 140180231414032*&#45;&gt;140180231414032 -->
<g id="edge2" class="edge">
<title>140180231414032*&#45;&gt;140180231414032</title>
<path fill="none" stroke="black" d="M335.11,-101.5C343.03,-101.5 352.32,-101.5 362.37,-101.5"/>
<polygon fill="black" stroke="black" points="362.64,-105 372.64,-101.5 362.64,-98 362.64,-105"/>
</g>
<!-- 140180231414080 -->
<g id="node6" class="node">
<title>140180231414080</title>
<polygon fill="none" stroke="black" points="745,-55.5 745,-91.5 986,-91.5 986,-55.5 745,-55.5"/>
<text text-anchor="middle" x="758" y="-69.8" font-family="Times,serif" font-size="14.00">d</text>
<polyline fill="none" stroke="black" points="771,-55.5 771,-91.5 "/>
<text text-anchor="middle" x="824.5" y="-69.8" font-family="Times,serif" font-size="14.00">data: 4.0000</text>
<polyline fill="none" stroke="black" points="878,-55.5 878,-91.5 "/>
<text text-anchor="middle" x="932" y="-69.8" font-family="Times,serif" font-size="14.00">grad: 0.0000</text>
</g>
<!-- 140180231414080&#45;&gt;140180231414272* -->
<g id="edge5" class="edge">
<title>140180231414080&#45;&gt;140180231414272*</title>
<path fill="none" stroke="black" d="M983.24,-55.49C993.61,-53.89 1003.49,-52.37 1012.27,-51.01"/>
<polygon fill="black" stroke="black" points="1013.03,-54.44 1022.38,-49.45 1011.97,-47.52 1013.03,-54.44"/>
</g>
<!-- 140180231414080+&#45;&gt;140180231414080 -->
<g id="edge3" class="edge">
<title>140180231414080+&#45;&gt;140180231414080</title>
<path fill="none" stroke="black" d="M709,-73.5C716.5,-73.5 725.22,-73.5 734.64,-73.5"/>
<polygon fill="black" stroke="black" points="734.68,-77 744.68,-73.5 734.68,-70 734.68,-77"/>
</g>
<!-- 140180231414128 -->
<g id="node8" class="node">
<title>140180231414128</title>
<polygon fill="none" stroke="black" points="745,-0.5 745,-36.5 986,-36.5 986,-0.5 745,-0.5"/>
<text text-anchor="middle" x="756" y="-14.8" font-family="Times,serif" font-size="14.00">f</text>
<polyline fill="none" stroke="black" points="767,-0.5 767,-36.5 "/>
<text text-anchor="middle" x="822.5" y="-14.8" font-family="Times,serif" font-size="14.00">data: &#45;2.0000</text>
<polyline fill="none" stroke="black" points="878,-0.5 878,-36.5 "/>
<text text-anchor="middle" x="932" y="-14.8" font-family="Times,serif" font-size="14.00">grad: 0.0000</text>
</g>
<!-- 140180231414128&#45;&gt;140180231414272* -->
<g id="edge7" class="edge">
<title>140180231414128&#45;&gt;140180231414272*</title>
<path fill="none" stroke="black" d="M986.05,-36.28C995.46,-37.68 1004.41,-39.02 1012.44,-40.21"/>
<polygon fill="black" stroke="black" points="1012.01,-43.68 1022.41,-41.69 1013.04,-36.76 1012.01,-43.68"/>
</g>
<!-- 140180233338832 -->
<g id="node9" class="node">
<title>140180233338832</title>
<polygon fill="none" stroke="black" points="2.5,-56.5 2.5,-92.5 242.5,-92.5 242.5,-56.5 2.5,-56.5"/>
<text text-anchor="middle" x="15" y="-70.8" font-family="Times,serif" font-size="14.00">a</text>
<polyline fill="none" stroke="black" points="27.5,-56.5 27.5,-92.5 "/>
<text text-anchor="middle" x="81" y="-70.8" font-family="Times,serif" font-size="14.00">data: 2.0000</text>
<polyline fill="none" stroke="black" points="134.5,-56.5 134.5,-92.5 "/>
<text text-anchor="middle" x="188.5" y="-70.8" font-family="Times,serif" font-size="14.00">grad: 0.0000</text>
</g>
<!-- 140180233338832&#45;&gt;140180231414032* -->
<g id="edge8" class="edge">
<title>140180233338832&#45;&gt;140180231414032*</title>
<path fill="none" stroke="black" d="M242.56,-92.02C252.91,-93.54 262.75,-94.99 271.49,-96.27"/>
<polygon fill="black" stroke="black" points="271.15,-99.76 281.55,-97.76 272.17,-92.84 271.15,-99.76"/>
</g>
<!-- 140180233336816 -->
<g id="node10" class="node">
<title>140180233336816</title>
<polygon fill="none" stroke="black" points="371,-28.5 371,-64.5 619,-64.5 619,-28.5 371,-28.5"/>
<text text-anchor="middle" x="383" y="-42.8" font-family="Times,serif" font-size="14.00">c</text>
<polyline fill="none" stroke="black" points="395,-28.5 395,-64.5 "/>
<text text-anchor="middle" x="453" y="-42.8" font-family="Times,serif" font-size="14.00">data: 10.0000</text>
<polyline fill="none" stroke="black" points="511,-28.5 511,-64.5 "/>
<text text-anchor="middle" x="565" y="-42.8" font-family="Times,serif" font-size="14.00">grad: 0.0000</text>
</g>
<!-- 140180233336816&#45;&gt;140180231414080+ -->
<g id="edge9" class="edge">
<title>140180233336816&#45;&gt;140180231414080+</title>
<path fill="none" stroke="black" d="M619.14,-64.47C628.57,-65.85 637.53,-67.16 645.55,-68.33"/>
<polygon fill="black" stroke="black" points="645.1,-71.8 655.51,-69.78 646.12,-64.87 645.1,-71.8"/>
</g>
</g>
</svg>
