<?xml version="1.0" encoding="UTF-8" standalone="no"?>
<!DOCTYPE svg PUBLIC "-//W3C//DTD SVG 1.1//EN"
 "http://www.w3.org/Graphics/SVG/1.1/DTD/svg11.dtd">
<!-- Generated by graphviz version 2.43.0 (0)
 -->
<!-- Title: %3 Pages: 1 -->
<svg width="631pt" height="100pt"
 viewBox="0.00 0.00 631.00 100.00" xmlns="http://www.w3.org/2000/svg" xmlns:xlink="http://www.w3.org/1999/xlink">
<g id="graph0" class="graph" transform="scale(1 1) rotate(0) translate(4 96)">
<title>%3</title>
<polygon fill="white" stroke="transparent" points="-4,4 -4,-96 627,-96 627,4 -4,4"/>
<!-- 140144090265104 -->
<g id="node1" class="node">
<title>140144090265104</title>
<polygon fill="none" stroke="black" points="375,-27.5 375,-63.5 623,-63.5 623,-27.5 375,-27.5"/>
<text text-anchor="middle" x="387" y="-41.8" font-family="Times,serif" font-size="14.00">z</text>
<polyline fill="none" stroke="black" points="399,-27.5 399,-63.5 "/>
<text text-anchor="middle" x="457" y="-41.8" font-family="Times,serif" font-size="14.00">data: 15.0000</text>
<polyline fill="none" stroke="black" points="515,-27.5 515,-63.5 "/>
<text text-anchor="middle" x="569" y="-41.8" font-family="Times,serif" font-size="14.00">grad: 1.0000</text>
</g>
<!-- 140144090265104+ -->
<g id="node2" class="node">
<title>140144090265104+</title>
<ellipse fill="none" stroke="black" cx="312" cy="-45.5" rx="27" ry="18"/>
<text text-anchor="middle" x="312" y="-41.8" font-family="Times,serif" font-size="14.00">+</text>
</g>
<!-- 140144090265104+&#45;&gt;140144090265104 -->
<g id="edge1" class="edge">
<title>140144090265104+&#45;&gt;140144090265104</title>
<path fill="none" stroke="black" d="M339.11,-45.5C346.58,-45.5 355.27,-45.5 364.65,-45.5"/>
<polygon fill="black" stroke="black" points="364.67,-49 374.67,-45.5 364.67,-42 364.67,-49"/>
</g>
<!-- 140144090266784 -->
<g id="node3" class="node">
<title>140144090266784</title>
<polygon fill="none" stroke="black" points="0,-55.5 0,-91.5 249,-91.5 249,-55.5 0,-55.5"/>
<text text-anchor="middle" x="12.5" y="-69.8" font-family="Times,serif" font-size="14.00">y</text>
<polyline fill="none" stroke="black" points="25,-55.5 25,-91.5 "/>
<text text-anchor="middle" x="83" y="-69.8" font-family="Times,serif" font-size="14.00">data: 10.0000</text>
<polyline fill="none" stroke="black" points="141,-55.5 141,-91.5 "/>
<text text-anchor="middle" x="195" y="-69.8" font-family="Times,serif" font-size="14.00">grad: 1.0000</text>
</g>
<!-- 140144090266784&#45;&gt;140144090265104+ -->
<g id="edge3" class="edge">
<title>140144090266784&#45;&gt;140144090265104+</title>
<path fill="none" stroke="black" d="M244.82,-55.49C255.73,-53.84 266.12,-52.27 275.28,-50.89"/>
<polygon fill="black" stroke="black" points="276.08,-54.31 285.45,-49.36 275.04,-47.39 276.08,-54.31"/>
</g>
<!-- 140144090267600 -->
<g id="node4" class="node">
<title>140144090267600</title>
<polygon fill="none" stroke="black" points="4.5,-0.5 4.5,-36.5 244.5,-36.5 244.5,-0.5 4.5,-0.5"/>
<text text-anchor="middle" x="17" y="-14.8" font-family="Times,serif" font-size="14.00">x</text>
<polyline fill="none" stroke="black" points="29.5,-0.5 29.5,-36.5 "/>
<text text-anchor="middle" x="83" y="-14.8" font-family="Times,serif" font-size="14.00">data: 5.0000</text>
<polyline fill="none" stroke="black" points="136.5,-0.5 136.5,-36.5 "/>
<text text-anchor="middle" x="190.5" y="-14.8" font-family="Times,serif" font-size="14.00">grad: 1.0000</text>
</g>
<!-- 140144090267600&#45;&gt;140144090265104+ -->
<g id="edge2" class="edge">
<title>140144090267600&#45;&gt;140144090265104+</title>
<path fill="none" stroke="black" d="M244.55,-35.83C255.63,-37.44 266.15,-38.97 275.43,-40.32"/>
<polygon fill="black" stroke="black" points="274.94,-43.79 285.33,-41.76 275.94,-36.86 274.94,-43.79"/>
</g>
</g>
</svg>
