<?xml version="1.0" encoding="UTF-8" standalone="no"?>
<!DOCTYPE svg PUBLIC "-//W3C//DTD SVG 1.1//EN"
 "http://www.w3.org/Graphics/SVG/1.1/DTD/svg11.dtd">
<!-- Generated by graphviz version 2.43.0 (0)
 -->
<!-- Title: %3 Pages: 1 -->
<svg width="1514pt" height="210pt"
 viewBox="0.00 0.00 1514.00 210.00" xmlns="http://www.w3.org/2000/svg" xmlns:xlink="http://www.w3.org/1999/xlink">
<g id="graph0" class="graph" transform="scale(1 1) rotate(0) translate(4 206)">
<title>%3</title>
<polygon fill="white" stroke="transparent" points="-4,4 -4,-206 1510,-206 1510,4 -4,4"/>
<!-- 140681921953312 -->
<g id="node1" class="node">
<title>140681921953312</title>
<polygon fill="none" stroke="black" points="4,-165.5 4,-201.5 253,-201.5 253,-165.5 4,-165.5"/>
<text text-anchor="middle" x="21" y="-179.8" font-family="Times,serif" font-size="14.00">x2</text>
<polyline fill="none" stroke="black" points="38,-165.5 38,-201.5 "/>
<text text-anchor="middle" x="91.5" y="-179.8" font-family="Times,serif" font-size="14.00">data: 0.0000</text>
<polyline fill="none" stroke="black" points="145,-165.5 145,-201.5 "/>
<text text-anchor="middle" x="199" y="-179.8" font-family="Times,serif" font-size="14.00">grad: 0.0000</text>
</g>
<!-- 140681920013712* -->
<g id="node10" class="node">
<title>140681920013712*</title>
<ellipse fill="none" stroke="black" cx="320" cy="-128.5" rx="27" ry="18"/>
<text text-anchor="middle" x="320" y="-124.8" font-family="Times,serif" font-size="14.00">*</text>
</g>
<!-- 140681921953312&#45;&gt;140681920013712* -->
<g id="edge5" class="edge">
<title>140681921953312&#45;&gt;140681920013712*</title>
<path fill="none" stroke="black" d="M225.82,-165.43C236.43,-162.75 247,-159.77 257,-156.5 267.72,-152.99 279.07,-148.2 289.08,-143.58"/>
<polygon fill="black" stroke="black" points="290.68,-146.7 298.21,-139.25 287.68,-140.37 290.68,-146.7"/>
</g>
<!-- 140681920013904 -->
<g id="node2" class="node">
<title>140681920013904</title>
<polygon fill="none" stroke="black" points="1242,-54.5 1242,-90.5 1506,-90.5 1506,-54.5 1242,-54.5"/>
<text text-anchor="middle" x="1266.5" y="-68.8" font-family="Times,serif" font-size="14.00">logit</text>
<polyline fill="none" stroke="black" points="1291,-54.5 1291,-90.5 "/>
<text text-anchor="middle" x="1344.5" y="-68.8" font-family="Times,serif" font-size="14.00">data: 0.7000</text>
<polyline fill="none" stroke="black" points="1398,-54.5 1398,-90.5 "/>
<text text-anchor="middle" x="1452" y="-68.8" font-family="Times,serif" font-size="14.00">grad: 0.0000</text>
</g>
<!-- 140681920013904+ -->
<g id="node3" class="node">
<title>140681920013904+</title>
<ellipse fill="none" stroke="black" cx="1179" cy="-72.5" rx="27" ry="18"/>
<text text-anchor="middle" x="1179" y="-68.8" font-family="Times,serif" font-size="14.00">+</text>
</g>
<!-- 140681920013904+&#45;&gt;140681920013904 -->
<g id="edge1" class="edge">
<title>140681920013904+&#45;&gt;140681920013904</title>
<path fill="none" stroke="black" d="M1206.03,-72.5C1213.51,-72.5 1222.24,-72.5 1231.71,-72.5"/>
<polygon fill="black" stroke="black" points="1231.82,-76 1241.82,-72.5 1231.82,-69 1231.82,-76"/>
</g>
<!-- 140681920013472 -->
<g id="node4" class="node">
<title>140681920013472</title>
<polygon fill="none" stroke="black" points="829,-27.5 829,-63.5 1070,-63.5 1070,-27.5 829,-27.5"/>
<text text-anchor="middle" x="842" y="-41.8" font-family="Times,serif" font-size="14.00">b</text>
<polyline fill="none" stroke="black" points="855,-27.5 855,-63.5 "/>
<text text-anchor="middle" x="908.5" y="-41.8" font-family="Times,serif" font-size="14.00">data: 6.7000</text>
<polyline fill="none" stroke="black" points="962,-27.5 962,-63.5 "/>
<text text-anchor="middle" x="1016" y="-41.8" font-family="Times,serif" font-size="14.00">grad: 0.0000</text>
</g>
<!-- 140681920013472&#45;&gt;140681920013904+ -->
<g id="edge9" class="edge">
<title>140681920013472&#45;&gt;140681920013904+</title>
<path fill="none" stroke="black" d="M1070.25,-59.71C1096.56,-62.83 1122.45,-65.91 1142.25,-68.26"/>
<polygon fill="black" stroke="black" points="1141.96,-71.75 1152.3,-69.45 1142.78,-64.8 1141.96,-71.75"/>
</g>
<!-- 140681920013520 -->
<g id="node5" class="node">
<title>140681920013520</title>
<polygon fill="none" stroke="black" points="2,-110.5 2,-146.5 255,-146.5 255,-110.5 2,-110.5"/>
<text text-anchor="middle" x="21" y="-124.8" font-family="Times,serif" font-size="14.00">w2</text>
<polyline fill="none" stroke="black" points="40,-110.5 40,-146.5 "/>
<text text-anchor="middle" x="93.5" y="-124.8" font-family="Times,serif" font-size="14.00">data: 1.0000</text>
<polyline fill="none" stroke="black" points="147,-110.5 147,-146.5 "/>
<text text-anchor="middle" x="201" y="-124.8" font-family="Times,serif" font-size="14.00">grad: 0.0000</text>
</g>
<!-- 140681920013520&#45;&gt;140681920013712* -->
<g id="edge6" class="edge">
<title>140681920013520&#45;&gt;140681920013712*</title>
<path fill="none" stroke="black" d="M255.11,-128.5C265.04,-128.5 274.47,-128.5 282.88,-128.5"/>
<polygon fill="black" stroke="black" points="282.96,-132 292.96,-128.5 282.96,-125 282.96,-132"/>
</g>
<!-- 140681920013664 -->
<g id="node6" class="node">
<title>140681920013664</title>
<polygon fill="none" stroke="black" points="383,-55.5 383,-91.5 657,-91.5 657,-55.5 383,-55.5"/>
<text text-anchor="middle" x="410.5" y="-69.8" font-family="Times,serif" font-size="14.00">x1w1</text>
<polyline fill="none" stroke="black" points="438,-55.5 438,-91.5 "/>
<text text-anchor="middle" x="493.5" y="-69.8" font-family="Times,serif" font-size="14.00">data: &#45;6.0000</text>
<polyline fill="none" stroke="black" points="549,-55.5 549,-91.5 "/>
<text text-anchor="middle" x="603" y="-69.8" font-family="Times,serif" font-size="14.00">grad: 0.0000</text>
</g>
<!-- 140681920013808+ -->
<g id="node13" class="node">
<title>140681920013808+</title>
<ellipse fill="none" stroke="black" cx="720" cy="-100.5" rx="27" ry="18"/>
<text text-anchor="middle" x="720" y="-96.8" font-family="Times,serif" font-size="14.00">+</text>
</g>
<!-- 140681920013664&#45;&gt;140681920013808+ -->
<g id="edge10" class="edge">
<title>140681920013664&#45;&gt;140681920013808+</title>
<path fill="none" stroke="black" d="M653.07,-91.51C663.98,-93 674.29,-94.4 683.36,-95.64"/>
<polygon fill="black" stroke="black" points="683.04,-99.13 693.42,-97.01 683.99,-92.19 683.04,-99.13"/>
</g>
<!-- 140681920013664* -->
<g id="node7" class="node">
<title>140681920013664*</title>
<ellipse fill="none" stroke="black" cx="320" cy="-73.5" rx="27" ry="18"/>
<text text-anchor="middle" x="320" y="-69.8" font-family="Times,serif" font-size="14.00">*</text>
</g>
<!-- 140681920013664*&#45;&gt;140681920013664 -->
<g id="edge2" class="edge">
<title>140681920013664*&#45;&gt;140681920013664</title>
<path fill="none" stroke="black" d="M347.29,-73.5C354.71,-73.5 363.34,-73.5 372.71,-73.5"/>
<polygon fill="black" stroke="black" points="372.72,-77 382.72,-73.5 372.72,-70 372.72,-77"/>
</g>
<!-- 140681921951728 -->
<g id="node8" class="node">
<title>140681921951728</title>
<polygon fill="none" stroke="black" points="0,-55.5 0,-91.5 257,-91.5 257,-55.5 0,-55.5"/>
<text text-anchor="middle" x="19" y="-69.8" font-family="Times,serif" font-size="14.00">w1</text>
<polyline fill="none" stroke="black" points="38,-55.5 38,-91.5 "/>
<text text-anchor="middle" x="93.5" y="-69.8" font-family="Times,serif" font-size="14.00">data: &#45;3.0000</text>
<polyline fill="none" stroke="black" points="149,-55.5 149,-91.5 "/>
<text text-anchor="middle" x="203" y="-69.8" font-family="Times,serif" font-size="14.00">grad: 0.0000</text>
</g>
<!-- 140681921951728&#45;&gt;140681920013664* -->
<g id="edge11" class="edge">
<title>140681921951728&#45;&gt;140681920013664*</title>
<path fill="none" stroke="black" d="M257.21,-73.5C266.39,-73.5 275.09,-73.5 282.91,-73.5"/>
<polygon fill="black" stroke="black" points="283,-77 293,-73.5 283,-70 283,-77"/>
</g>
<!-- 140681920013712 -->
<g id="node9" class="node">
<title>140681920013712</title>
<polygon fill="none" stroke="black" points="385,-110.5 385,-146.5 655,-146.5 655,-110.5 385,-110.5"/>
<text text-anchor="middle" x="412.5" y="-124.8" font-family="Times,serif" font-size="14.00">x2w2</text>
<polyline fill="none" stroke="black" points="440,-110.5 440,-146.5 "/>
<text text-anchor="middle" x="493.5" y="-124.8" font-family="Times,serif" font-size="14.00">data: 0.0000</text>
<polyline fill="none" stroke="black" points="547,-110.5 547,-146.5 "/>
<text text-anchor="middle" x="601" y="-124.8" font-family="Times,serif" font-size="14.00">grad: 0.0000</text>
</g>
<!-- 140681920013712&#45;&gt;140681920013808+ -->
<g id="edge7" class="edge">
<title>140681920013712&#45;&gt;140681920013808+</title>
<path fill="none" stroke="black" d="M648.36,-110.49C660.95,-108.71 672.87,-107.02 683.21,-105.56"/>
<polygon fill="black" stroke="black" points="683.97,-108.99 693.38,-104.12 682.99,-102.06 683.97,-108.99"/>
</g>
<!-- 140681920013712*&#45;&gt;140681920013712 -->
<g id="edge3" class="edge">
<title>140681920013712*&#45;&gt;140681920013712</title>
<path fill="none" stroke="black" d="M347.29,-128.5C355.18,-128.5 364.45,-128.5 374.51,-128.5"/>
<polygon fill="black" stroke="black" points="374.82,-132 384.82,-128.5 374.82,-125 374.82,-132"/>
</g>
<!-- 140681921953744 -->
<g id="node11" class="node">
<title>140681921953744</title>
<polygon fill="none" stroke="black" points="4,-0.5 4,-36.5 253,-36.5 253,-0.5 4,-0.5"/>
<text text-anchor="middle" x="21" y="-14.8" font-family="Times,serif" font-size="14.00">x1</text>
<polyline fill="none" stroke="black" points="38,-0.5 38,-36.5 "/>
<text text-anchor="middle" x="91.5" y="-14.8" font-family="Times,serif" font-size="14.00">data: 2.0000</text>
<polyline fill="none" stroke="black" points="145,-0.5 145,-36.5 "/>
<text text-anchor="middle" x="199" y="-14.8" font-family="Times,serif" font-size="14.00">grad: 0.0000</text>
</g>
<!-- 140681921953744&#45;&gt;140681920013664* -->
<g id="edge12" class="edge">
<title>140681921953744&#45;&gt;140681920013664*</title>
<path fill="none" stroke="black" d="M222,-36.58C233.87,-39.55 245.79,-42.87 257,-46.5 267.47,-49.89 278.59,-54.42 288.47,-58.8"/>
<polygon fill="black" stroke="black" points="287.33,-62.12 297.88,-63.08 290.22,-55.75 287.33,-62.12"/>
</g>
<!-- 140681920013808 -->
<g id="node12" class="node">
<title>140681920013808</title>
<polygon fill="none" stroke="black" points="783,-82.5 783,-118.5 1116,-118.5 1116,-82.5 783,-82.5"/>
<text text-anchor="middle" x="840" y="-96.8" font-family="Times,serif" font-size="14.00">x1w1 + x2w2</text>
<polyline fill="none" stroke="black" points="897,-82.5 897,-118.5 "/>
<text text-anchor="middle" x="952.5" y="-96.8" font-family="Times,serif" font-size="14.00">data: &#45;6.0000</text>
<polyline fill="none" stroke="black" points="1008,-82.5 1008,-118.5 "/>
<text text-anchor="middle" x="1062" y="-96.8" font-family="Times,serif" font-size="14.00">grad: 0.0000</text>
</g>
<!-- 140681920013808&#45;&gt;140681920013904+ -->
<g id="edge8" class="edge">
<title>140681920013808&#45;&gt;140681920013904+</title>
<path fill="none" stroke="black" d="M1096.83,-82.49C1113.41,-80.45 1128.98,-78.53 1141.96,-76.94"/>
<polygon fill="black" stroke="black" points="1142.72,-80.37 1152.22,-75.67 1141.87,-73.42 1142.72,-80.37"/>
</g>
<!-- 140681920013808+&#45;&gt;140681920013808 -->
<g id="edge4" class="edge">
<title>140681920013808+&#45;&gt;140681920013808</title>
<path fill="none" stroke="black" d="M747.1,-100.5C754.46,-100.5 763.07,-100.5 772.5,-100.5"/>
<polygon fill="black" stroke="black" points="772.61,-104 782.61,-100.5 772.61,-97 772.61,-104"/>
</g>
</g>
</svg>
