<?xml version="1.0" encoding="UTF-8" standalone="no"?>
<!DOCTYPE svg PUBLIC "-//W3C//DTD SVG 1.1//EN"
 "http://www.w3.org/Graphics/SVG/1.1/DTD/svg11.dtd">
<!-- Generated by graphviz version 2.43.0 (0)
 -->
<!-- Title: %3 Pages: 1 -->
<svg width="1891pt" height="210pt"
 viewBox="0.00 0.00 1890.69 210.00" xmlns="http://www.w3.org/2000/svg" xmlns:xlink="http://www.w3.org/1999/xlink">
<g id="graph0" class="graph" transform="scale(1 1) rotate(0) translate(4 206)">
<title>%3</title>
<polygon fill="white" stroke="transparent" points="-4,4 -4,-206 1886.69,-206 1886.69,4 -4,4"/>
<!-- 140264265774608 -->
<g id="node1" class="node">
<title>140264265774608</title>
<polygon fill="none" stroke="black" points="383,-55.5 383,-91.5 657,-91.5 657,-55.5 383,-55.5"/>
<text text-anchor="middle" x="410.5" y="-69.8" font-family="Times,serif" font-size="14.00">x1w1</text>
<polyline fill="none" stroke="black" points="438,-55.5 438,-91.5 "/>
<text text-anchor="middle" x="493.5" y="-69.8" font-family="Times,serif" font-size="14.00">data: &#45;6.0000</text>
<polyline fill="none" stroke="black" points="549,-55.5 549,-91.5 "/>
<text text-anchor="middle" x="603" y="-69.8" font-family="Times,serif" font-size="14.00">grad: 0.0000</text>
</g>
<!-- 140264265774752+ -->
<g id="node6" class="node">
<title>140264265774752+</title>
<ellipse fill="none" stroke="black" cx="720" cy="-100.5" rx="27" ry="18"/>
<text text-anchor="middle" x="720" y="-96.8" font-family="Times,serif" font-size="14.00">+</text>
</g>
<!-- 140264265774608&#45;&gt;140264265774752+ -->
<g id="edge6" class="edge">
<title>140264265774608&#45;&gt;140264265774752+</title>
<path fill="none" stroke="black" d="M653.07,-91.51C663.98,-93 674.29,-94.4 683.36,-95.64"/>
<polygon fill="black" stroke="black" points="683.04,-99.13 693.42,-97.01 683.99,-92.19 683.04,-99.13"/>
</g>
<!-- 140264265774608* -->
<g id="node2" class="node">
<title>140264265774608*</title>
<ellipse fill="none" stroke="black" cx="320" cy="-73.5" rx="27" ry="18"/>
<text text-anchor="middle" x="320" y="-69.8" font-family="Times,serif" font-size="14.00">*</text>
</g>
<!-- 140264265774608*&#45;&gt;140264265774608 -->
<g id="edge1" class="edge">
<title>140264265774608*&#45;&gt;140264265774608</title>
<path fill="none" stroke="black" d="M347.29,-73.5C354.71,-73.5 363.34,-73.5 372.71,-73.5"/>
<polygon fill="black" stroke="black" points="372.72,-77 382.72,-73.5 372.72,-70 372.72,-77"/>
</g>
<!-- 140264265774656 -->
<g id="node3" class="node">
<title>140264265774656</title>
<polygon fill="none" stroke="black" points="385,-110.5 385,-146.5 655,-146.5 655,-110.5 385,-110.5"/>
<text text-anchor="middle" x="412.5" y="-124.8" font-family="Times,serif" font-size="14.00">x2w2</text>
<polyline fill="none" stroke="black" points="440,-110.5 440,-146.5 "/>
<text text-anchor="middle" x="493.5" y="-124.8" font-family="Times,serif" font-size="14.00">data: 0.0000</text>
<polyline fill="none" stroke="black" points="547,-110.5 547,-146.5 "/>
<text text-anchor="middle" x="601" y="-124.8" font-family="Times,serif" font-size="14.00">grad: 0.0000</text>
</g>
<!-- 140264265774656&#45;&gt;140264265774752+ -->
<g id="edge7" class="edge">
<title>140264265774656&#45;&gt;140264265774752+</title>
<path fill="none" stroke="black" d="M648.36,-110.49C660.95,-108.71 672.87,-107.02 683.21,-105.56"/>
<polygon fill="black" stroke="black" points="683.97,-108.99 693.38,-104.12 682.99,-102.06 683.97,-108.99"/>
</g>
<!-- 140264265774656* -->
<g id="node4" class="node">
<title>140264265774656*</title>
<ellipse fill="none" stroke="black" cx="320" cy="-128.5" rx="27" ry="18"/>
<text text-anchor="middle" x="320" y="-124.8" font-family="Times,serif" font-size="14.00">*</text>
</g>
<!-- 140264265774656*&#45;&gt;140264265774656 -->
<g id="edge2" class="edge">
<title>140264265774656*&#45;&gt;140264265774656</title>
<path fill="none" stroke="black" d="M347.29,-128.5C355.18,-128.5 364.45,-128.5 374.51,-128.5"/>
<polygon fill="black" stroke="black" points="374.82,-132 384.82,-128.5 374.82,-125 374.82,-132"/>
</g>
<!-- 140264265774752 -->
<g id="node5" class="node">
<title>140264265774752</title>
<polygon fill="none" stroke="black" points="783,-82.5 783,-118.5 1116,-118.5 1116,-82.5 783,-82.5"/>
<text text-anchor="middle" x="840" y="-96.8" font-family="Times,serif" font-size="14.00">x1w1 + x2w2</text>
<polyline fill="none" stroke="black" points="897,-82.5 897,-118.5 "/>
<text text-anchor="middle" x="952.5" y="-96.8" font-family="Times,serif" font-size="14.00">data: &#45;6.0000</text>
<polyline fill="none" stroke="black" points="1008,-82.5 1008,-118.5 "/>
<text text-anchor="middle" x="1062" y="-96.8" font-family="Times,serif" font-size="14.00">grad: 0.0000</text>
</g>
<!-- 140264265774848+ -->
<g id="node9" class="node">
<title>140264265774848+</title>
<ellipse fill="none" stroke="black" cx="1179" cy="-127.5" rx="27" ry="18"/>
<text text-anchor="middle" x="1179" y="-123.8" font-family="Times,serif" font-size="14.00">+</text>
</g>
<!-- 140264265774752&#45;&gt;140264265774848+ -->
<g id="edge14" class="edge">
<title>140264265774752&#45;&gt;140264265774848+</title>
<path fill="none" stroke="black" d="M1102.25,-118.51C1116.85,-120.24 1130.51,-121.86 1142.09,-123.24"/>
<polygon fill="black" stroke="black" points="1141.78,-126.73 1152.12,-124.43 1142.6,-119.77 1141.78,-126.73"/>
</g>
<!-- 140264265774752+&#45;&gt;140264265774752 -->
<g id="edge3" class="edge">
<title>140264265774752+&#45;&gt;140264265774752</title>
<path fill="none" stroke="black" d="M747.1,-100.5C754.46,-100.5 763.07,-100.5 772.5,-100.5"/>
<polygon fill="black" stroke="black" points="772.61,-104 782.61,-100.5 772.61,-97 772.61,-104"/>
</g>
<!-- 140264613129440 -->
<g id="node7" class="node">
<title>140264613129440</title>
<polygon fill="none" stroke="black" points="2,-165.5 2,-201.5 255,-201.5 255,-165.5 2,-165.5"/>
<text text-anchor="middle" x="21" y="-179.8" font-family="Times,serif" font-size="14.00">w2</text>
<polyline fill="none" stroke="black" points="40,-165.5 40,-201.5 "/>
<text text-anchor="middle" x="93.5" y="-179.8" font-family="Times,serif" font-size="14.00">data: 1.0000</text>
<polyline fill="none" stroke="black" points="147,-165.5 147,-201.5 "/>
<text text-anchor="middle" x="201" y="-179.8" font-family="Times,serif" font-size="14.00">grad: 0.0000</text>
</g>
<!-- 140264613129440&#45;&gt;140264265774656* -->
<g id="edge8" class="edge">
<title>140264613129440&#45;&gt;140264265774656*</title>
<path fill="none" stroke="black" d="M225.82,-165.43C236.43,-162.75 247,-159.77 257,-156.5 267.72,-152.99 279.07,-148.2 289.08,-143.58"/>
<polygon fill="black" stroke="black" points="290.68,-146.7 298.21,-139.25 287.68,-140.37 290.68,-146.7"/>
</g>
<!-- 140264265774848 -->
<g id="node8" class="node">
<title>140264265774848</title>
<polygon fill="none" stroke="black" points="1242,-109.5 1242,-145.5 1506,-145.5 1506,-109.5 1242,-109.5"/>
<text text-anchor="middle" x="1266.5" y="-123.8" font-family="Times,serif" font-size="14.00">logit</text>
<polyline fill="none" stroke="black" points="1291,-109.5 1291,-145.5 "/>
<text text-anchor="middle" x="1344.5" y="-123.8" font-family="Times,serif" font-size="14.00">data: 0.8814</text>
<polyline fill="none" stroke="black" points="1398,-109.5 1398,-145.5 "/>
<text text-anchor="middle" x="1452" y="-123.8" font-family="Times,serif" font-size="14.00">grad: 0.0000</text>
</g>
<!-- 140264265774944tanh -->
<g id="node11" class="node">
<title>140264265774944tanh</title>
<ellipse fill="none" stroke="black" cx="1573.85" cy="-127.5" rx="31.7" ry="18"/>
<text text-anchor="middle" x="1573.85" y="-123.8" font-family="Times,serif" font-size="14.00">tanh</text>
</g>
<!-- 140264265774848&#45;&gt;140264265774944tanh -->
<g id="edge9" class="edge">
<title>140264265774848&#45;&gt;140264265774944tanh</title>
<path fill="none" stroke="black" d="M1506.14,-127.5C1515.1,-127.5 1523.67,-127.5 1531.49,-127.5"/>
<polygon fill="black" stroke="black" points="1531.68,-131 1541.68,-127.5 1531.68,-124 1531.68,-131"/>
</g>
<!-- 140264265774848+&#45;&gt;140264265774848 -->
<g id="edge4" class="edge">
<title>140264265774848+&#45;&gt;140264265774848</title>
<path fill="none" stroke="black" d="M1206.03,-127.5C1213.51,-127.5 1222.24,-127.5 1231.71,-127.5"/>
<polygon fill="black" stroke="black" points="1231.82,-131 1241.82,-127.5 1231.82,-124 1231.82,-131"/>
</g>
<!-- 140264265774944 -->
<g id="node10" class="node">
<title>140264265774944</title>
<polygon fill="none" stroke="black" points="1641.69,-109.5 1641.69,-145.5 1882.69,-145.5 1882.69,-109.5 1641.69,-109.5"/>
<text text-anchor="middle" x="1654.69" y="-123.8" font-family="Times,serif" font-size="14.00">L</text>
<polyline fill="none" stroke="black" points="1667.69,-109.5 1667.69,-145.5 "/>
<text text-anchor="middle" x="1721.19" y="-123.8" font-family="Times,serif" font-size="14.00">data: 0.7071</text>
<polyline fill="none" stroke="black" points="1774.69,-109.5 1774.69,-145.5 "/>
<text text-anchor="middle" x="1828.69" y="-123.8" font-family="Times,serif" font-size="14.00">grad: 0.0000</text>
</g>
<!-- 140264265774944tanh&#45;&gt;140264265774944 -->
<g id="edge5" class="edge">
<title>140264265774944tanh&#45;&gt;140264265774944</title>
<path fill="none" stroke="black" d="M1606.04,-127.5C1613.65,-127.5 1622.26,-127.5 1631.45,-127.5"/>
<polygon fill="black" stroke="black" points="1631.61,-131 1641.61,-127.5 1631.61,-124 1631.61,-131"/>
</g>
<!-- 140264265770864 -->
<g id="node12" class="node">
<title>140264265770864</title>
<polygon fill="none" stroke="black" points="829,-137.5 829,-173.5 1070,-173.5 1070,-137.5 829,-137.5"/>
<text text-anchor="middle" x="842" y="-151.8" font-family="Times,serif" font-size="14.00">b</text>
<polyline fill="none" stroke="black" points="855,-137.5 855,-173.5 "/>
<text text-anchor="middle" x="908.5" y="-151.8" font-family="Times,serif" font-size="14.00">data: 6.8814</text>
<polyline fill="none" stroke="black" points="962,-137.5 962,-173.5 "/>
<text text-anchor="middle" x="1016" y="-151.8" font-family="Times,serif" font-size="14.00">grad: 0.0000</text>
</g>
<!-- 140264265770864&#45;&gt;140264265774848+ -->
<g id="edge10" class="edge">
<title>140264265770864&#45;&gt;140264265774848+</title>
<path fill="none" stroke="black" d="M1070.25,-140.76C1096.56,-137.52 1122.45,-134.34 1142.25,-131.9"/>
<polygon fill="black" stroke="black" points="1142.8,-135.36 1152.3,-130.66 1141.95,-128.41 1142.8,-135.36"/>
</g>
<!-- 140264615065536 -->
<g id="node13" class="node">
<title>140264615065536</title>
<polygon fill="none" stroke="black" points="0,-55.5 0,-91.5 257,-91.5 257,-55.5 0,-55.5"/>
<text text-anchor="middle" x="19" y="-69.8" font-family="Times,serif" font-size="14.00">w1</text>
<polyline fill="none" stroke="black" points="38,-55.5 38,-91.5 "/>
<text text-anchor="middle" x="93.5" y="-69.8" font-family="Times,serif" font-size="14.00">data: &#45;3.0000</text>
<polyline fill="none" stroke="black" points="149,-55.5 149,-91.5 "/>
<text text-anchor="middle" x="203" y="-69.8" font-family="Times,serif" font-size="14.00">grad: 0.0000</text>
</g>
<!-- 140264615065536&#45;&gt;140264265774608* -->
<g id="edge12" class="edge">
<title>140264615065536&#45;&gt;140264265774608*</title>
<path fill="none" stroke="black" d="M257.21,-73.5C266.39,-73.5 275.09,-73.5 282.91,-73.5"/>
<polygon fill="black" stroke="black" points="283,-77 293,-73.5 283,-70 283,-77"/>
</g>
<!-- 140264615067600 -->
<g id="node14" class="node">
<title>140264615067600</title>
<polygon fill="none" stroke="black" points="4,-0.5 4,-36.5 253,-36.5 253,-0.5 4,-0.5"/>
<text text-anchor="middle" x="21" y="-14.8" font-family="Times,serif" font-size="14.00">x1</text>
<polyline fill="none" stroke="black" points="38,-0.5 38,-36.5 "/>
<text text-anchor="middle" x="91.5" y="-14.8" font-family="Times,serif" font-size="14.00">data: 2.0000</text>
<polyline fill="none" stroke="black" points="145,-0.5 145,-36.5 "/>
<text text-anchor="middle" x="199" y="-14.8" font-family="Times,serif" font-size="14.00">grad: 0.0000</text>
</g>
<!-- 140264615067600&#45;&gt;140264265774608* -->
<g id="edge11" class="edge">
<title>140264615067600&#45;&gt;140264265774608*</title>
<path fill="none" stroke="black" d="M222,-36.58C233.87,-39.55 245.79,-42.87 257,-46.5 267.47,-49.89 278.59,-54.42 288.47,-58.8"/>
<polygon fill="black" stroke="black" points="287.33,-62.12 297.88,-63.08 290.22,-55.75 287.33,-62.12"/>
</g>
<!-- 140264615067120 -->
<g id="node15" class="node">
<title>140264615067120</title>
<polygon fill="none" stroke="black" points="4,-110.5 4,-146.5 253,-146.5 253,-110.5 4,-110.5"/>
<text text-anchor="middle" x="21" y="-124.8" font-family="Times,serif" font-size="14.00">x2</text>
<polyline fill="none" stroke="black" points="38,-110.5 38,-146.5 "/>
<text text-anchor="middle" x="91.5" y="-124.8" font-family="Times,serif" font-size="14.00">data: 0.0000</text>
<polyline fill="none" stroke="black" points="145,-110.5 145,-146.5 "/>
<text text-anchor="middle" x="199" y="-124.8" font-family="Times,serif" font-size="14.00">grad: 0.0000</text>
</g>
<!-- 140264615067120&#45;&gt;140264265774656* -->
<g id="edge13" class="edge">
<title>140264615067120&#45;&gt;140264265774656*</title>
<path fill="none" stroke="black" d="M253.25,-128.5C263.74,-128.5 273.7,-128.5 282.55,-128.5"/>
<polygon fill="black" stroke="black" points="282.76,-132 292.76,-128.5 282.76,-125 282.76,-132"/>
</g>
</g>
</svg>
