<?xml version="1.0" encoding="UTF-8" standalone="no"?>
<!DOCTYPE svg PUBLIC "-//W3C//DTD SVG 1.1//EN"
 "http://www.w3.org/Graphics/SVG/1.1/DTD/svg11.dtd">
<!-- Generated by graphviz version 2.43.0 (0)
 -->
<!-- Title: %3 Pages: 1 -->
<svg width="513pt" height="127pt"
 viewBox="0.00 0.00 513.00 127.00" xmlns="http://www.w3.org/2000/svg" xmlns:xlink="http://www.w3.org/1999/xlink">
<g id="graph0" class="graph" transform="scale(1 1) rotate(0) translate(4 123)">
<title>%3</title>
<polygon fill="white" stroke="transparent" points="-4,4 -4,-123 509,-123 509,4 -4,4"/>
<!-- 140064233659392 -->
<g id="node1" class="node">
<title>140064233659392</title>
<polygon fill="none" stroke="black" points="425,-54.5 425,-90.5 505,-90.5 505,-54.5 425,-54.5"/>
<text text-anchor="middle" x="465" y="-68.8" font-family="Times,serif" font-size="14.00">data: 4.0</text>
</g>
<!-- 140064233659392+ -->
<g id="node2" class="node">
<title>140064233659392+</title>
<ellipse fill="none" stroke="black" cx="362" cy="-72.5" rx="27" ry="18"/>
<text text-anchor="middle" x="362" y="-68.8" font-family="Times,serif" font-size="14.00">+</text>
</g>
<!-- 140064233659392+&#45;&gt;140064233659392 -->
<g id="edge1" class="edge">
<title>140064233659392+&#45;&gt;140064233659392</title>
<path fill="none" stroke="black" d="M389.01,-72.5C396.82,-72.5 405.67,-72.5 414.48,-72.5"/>
<polygon fill="black" stroke="black" points="414.73,-76 424.73,-72.5 414.73,-69 414.73,-76"/>
</g>
<!-- 140064235552240 -->
<g id="node3" class="node">
<title>140064235552240</title>
<polygon fill="none" stroke="black" points="0,-55.5 0,-91.5 84,-91.5 84,-55.5 0,-55.5"/>
<text text-anchor="middle" x="42" y="-69.8" font-family="Times,serif" font-size="14.00">data: &#45;3.0</text>
</g>
<!-- 140064233659344* -->
<g id="node7" class="node">
<title>140064233659344*</title>
<ellipse fill="none" stroke="black" cx="147" cy="-45.5" rx="27" ry="18"/>
<text text-anchor="middle" x="147" y="-41.8" font-family="Times,serif" font-size="14.00">*</text>
</g>
<!-- 140064235552240&#45;&gt;140064233659344* -->
<g id="edge4" class="edge">
<title>140064235552240&#45;&gt;140064233659344*</title>
<path fill="none" stroke="black" d="M84,-62.35C93.3,-59.83 103.07,-57.17 112.03,-54.73"/>
<polygon fill="black" stroke="black" points="113.01,-58.09 121.74,-52.09 111.18,-51.34 113.01,-58.09"/>
</g>
<!-- 140064235550656 -->
<g id="node4" class="node">
<title>140064235550656</title>
<polygon fill="none" stroke="black" points="210,-82.5 210,-118.5 299,-118.5 299,-82.5 210,-82.5"/>
<text text-anchor="middle" x="254.5" y="-96.8" font-family="Times,serif" font-size="14.00">data: 10.0</text>
</g>
<!-- 140064235550656&#45;&gt;140064233659392+ -->
<g id="edge6" class="edge">
<title>140064235550656&#45;&gt;140064233659392+</title>
<path fill="none" stroke="black" d="M299.02,-88.95C308.24,-86.5 317.85,-83.95 326.67,-81.61"/>
<polygon fill="black" stroke="black" points="327.83,-84.93 336.6,-78.98 326.03,-78.16 327.83,-84.93"/>
</g>
<!-- 140064235552720 -->
<g id="node5" class="node">
<title>140064235552720</title>
<polygon fill="none" stroke="black" points="2,-0.5 2,-36.5 82,-36.5 82,-0.5 2,-0.5"/>
<text text-anchor="middle" x="42" y="-14.8" font-family="Times,serif" font-size="14.00">data: 2.0</text>
</g>
<!-- 140064235552720&#45;&gt;140064233659344* -->
<g id="edge5" class="edge">
<title>140064235552720&#45;&gt;140064233659344*</title>
<path fill="none" stroke="black" d="M82.23,-28.78C91.92,-31.32 102.22,-34.02 111.65,-36.5"/>
<polygon fill="black" stroke="black" points="110.92,-39.92 121.48,-39.07 112.69,-33.15 110.92,-39.92"/>
</g>
<!-- 140064233659344 -->
<g id="node6" class="node">
<title>140064233659344</title>
<polygon fill="none" stroke="black" points="212.5,-27.5 212.5,-63.5 296.5,-63.5 296.5,-27.5 212.5,-27.5"/>
<text text-anchor="middle" x="254.5" y="-41.8" font-family="Times,serif" font-size="14.00">data: &#45;6.0</text>
</g>
<!-- 140064233659344&#45;&gt;140064233659392+ -->
<g id="edge3" class="edge">
<title>140064233659344&#45;&gt;140064233659392+</title>
<path fill="none" stroke="black" d="M296.59,-56.02C306.53,-58.56 317.06,-61.25 326.65,-63.71"/>
<polygon fill="black" stroke="black" points="326.07,-67.17 336.63,-66.26 327.81,-60.39 326.07,-67.17"/>
</g>
<!-- 140064233659344*&#45;&gt;140064233659344 -->
<g id="edge2" class="edge">
<title>140064233659344*&#45;&gt;140064233659344</title>
<path fill="none" stroke="black" d="M174.08,-45.5C182.59,-45.5 192.36,-45.5 202.08,-45.5"/>
<polygon fill="black" stroke="black" points="202.12,-49 212.12,-45.5 202.12,-42 202.12,-49"/>
</g>
</g>
</svg>
