<?xml version="1.0" encoding="UTF-8" standalone="no"?>
<!DOCTYPE svg PUBLIC "-//W3C//DTD SVG 1.1//EN"
 "http://www.w3.org/Graphics/SVG/1.1/DTD/svg11.dtd">
<!-- Generated by graphviz version 2.43.0 (0)
 -->
<!-- Title: %3 Pages: 1 -->
<svg width="3529pt" height="236pt"
 viewBox="0.00 0.00 3529.00 236.00" xmlns="http://www.w3.org/2000/svg" xmlns:xlink="http://www.w3.org/1999/xlink">
<g id="graph0" class="graph" transform="scale(1 1) rotate(0) translate(4 232)">
<title>%3</title>
<polygon fill="white" stroke="transparent" points="-4,4 -4,-232 3525,-232 3525,4 -4,4"/>
<!-- 140193115695680 -->
<g id="node1" class="node">
<title>140193115695680</title>
<polygon fill="none" stroke="black" points="1242,-109.5 1242,-145.5 1506,-145.5 1506,-109.5 1242,-109.5"/>
<text text-anchor="middle" x="1266.5" y="-123.8" font-family="Times,serif" font-size="14.00">logit</text>
<polyline fill="none" stroke="black" points="1291,-109.5 1291,-145.5 "/>
<text text-anchor="middle" x="1344.5" y="-123.8" font-family="Times,serif" font-size="14.00">data: 0.8814</text>
<polyline fill="none" stroke="black" points="1398,-109.5 1398,-145.5 "/>
<text text-anchor="middle" x="1452" y="-123.8" font-family="Times,serif" font-size="14.00">grad: 0.5000</text>
</g>
<!-- 140193115695920* -->
<g id="node17" class="node">
<title>140193115695920*</title>
<ellipse fill="none" stroke="black" cx="1569" cy="-154.5" rx="27" ry="18"/>
<text text-anchor="middle" x="1569" y="-150.8" font-family="Times,serif" font-size="14.00">*</text>
</g>
<!-- 140193115695680&#45;&gt;140193115695920* -->
<g id="edge27" class="edge">
<title>140193115695680&#45;&gt;140193115695920*</title>
<path fill="none" stroke="black" d="M1503.73,-145.51C1514.06,-146.95 1523.82,-148.32 1532.48,-149.53"/>
<polygon fill="black" stroke="black" points="1532.07,-153.01 1542.46,-150.93 1533.04,-146.07 1532.07,-153.01"/>
</g>
<!-- 140193115695680+ -->
<g id="node2" class="node">
<title>140193115695680+</title>
<ellipse fill="none" stroke="black" cx="1179" cy="-127.5" rx="27" ry="18"/>
<text text-anchor="middle" x="1179" y="-123.8" font-family="Times,serif" font-size="14.00">+</text>
</g>
<!-- 140193115695680+&#45;&gt;140193115695680 -->
<g id="edge1" class="edge">
<title>140193115695680+&#45;&gt;140193115695680</title>
<path fill="none" stroke="black" d="M1206.03,-127.5C1213.51,-127.5 1222.24,-127.5 1231.71,-127.5"/>
<polygon fill="black" stroke="black" points="1231.82,-131 1241.82,-127.5 1231.82,-124 1231.82,-131"/>
</g>
<!-- 140193115696736 -->
<g id="node3" class="node">
<title>140193115696736</title>
<polygon fill="none" stroke="black" points="2918,-161.5 2918,-197.5 3154,-197.5 3154,-161.5 2918,-161.5"/>
<text text-anchor="middle" x="2928.5" y="-175.8" font-family="Times,serif" font-size="14.00"> </text>
<polyline fill="none" stroke="black" points="2939,-161.5 2939,-197.5 "/>
<text text-anchor="middle" x="2992.5" y="-175.8" font-family="Times,serif" font-size="14.00">data: 0.1464</text>
<polyline fill="none" stroke="black" points="3046,-161.5 3046,-197.5 "/>
<text text-anchor="middle" x="3100" y="-175.8" font-family="Times,serif" font-size="14.00">grad: 4.8284</text>
</g>
<!-- 140193115696928* -->
<g id="node15" class="node">
<title>140193115696928*</title>
<ellipse fill="none" stroke="black" cx="3217" cy="-153.5" rx="27" ry="18"/>
<text text-anchor="middle" x="3217" y="-149.8" font-family="Times,serif" font-size="14.00">*</text>
</g>
<!-- 140193115696736&#45;&gt;140193115696928* -->
<g id="edge15" class="edge">
<title>140193115696736&#45;&gt;140193115696928*</title>
<path fill="none" stroke="black" d="M3154.15,-162.48C3163.53,-161.12 3172.46,-159.82 3180.46,-158.66"/>
<polygon fill="black" stroke="black" points="3181.03,-162.12 3190.42,-157.22 3180.02,-155.19 3181.03,-162.12"/>
</g>
<!-- 140193115696736**&#45;1 -->
<g id="node4" class="node">
<title>140193115696736**&#45;1</title>
<ellipse fill="none" stroke="black" cx="2764" cy="-181.5" rx="28.7" ry="18"/>
<text text-anchor="middle" x="2764" y="-177.8" font-family="Times,serif" font-size="14.00">**&#45;1</text>
</g>
<!-- 140193115696736**&#45;1&#45;&gt;140193115696736 -->
<g id="edge2" class="edge">
<title>140193115696736**&#45;1&#45;&gt;140193115696736</title>
<path fill="none" stroke="black" d="M2792.63,-181.3C2820.18,-181.09 2864.54,-180.76 2907.81,-180.44"/>
<polygon fill="black" stroke="black" points="2907.93,-183.94 2917.9,-180.37 2907.87,-176.94 2907.93,-183.94"/>
</g>
<!-- 140193115695728 -->
<g id="node5" class="node">
<title>140193115695728</title>
<polygon fill="none" stroke="black" points="1253.5,-164.5 1253.5,-200.5 1494.5,-200.5 1494.5,-164.5 1253.5,-164.5"/>
<text text-anchor="middle" x="1266.5" y="-178.8" font-family="Times,serif" font-size="14.00">2</text>
<polyline fill="none" stroke="black" points="1279.5,-164.5 1279.5,-200.5 "/>
<text text-anchor="middle" x="1333" y="-178.8" font-family="Times,serif" font-size="14.00">data: 2.0000</text>
<polyline fill="none" stroke="black" points="1386.5,-164.5 1386.5,-200.5 "/>
<text text-anchor="middle" x="1440.5" y="-178.8" font-family="Times,serif" font-size="14.00">grad: 0.2203</text>
</g>
<!-- 140193115695728&#45;&gt;140193115695920* -->
<g id="edge13" class="edge">
<title>140193115695728&#45;&gt;140193115695920*</title>
<path fill="none" stroke="black" d="M1494.76,-165.13C1508.28,-163.16 1521.15,-161.3 1532.22,-159.69"/>
<polygon fill="black" stroke="black" points="1532.86,-163.14 1542.25,-158.24 1531.85,-156.21 1532.86,-163.14"/>
</g>
<!-- 140193115696304 -->
<g id="node6" class="node">
<title>140193115696304</title>
<polygon fill="none" stroke="black" points="2646,-108.5 2646,-144.5 2882,-144.5 2882,-108.5 2646,-108.5"/>
<text text-anchor="middle" x="2656.5" y="-122.8" font-family="Times,serif" font-size="14.00"> </text>
<polyline fill="none" stroke="black" points="2667,-108.5 2667,-144.5 "/>
<text text-anchor="middle" x="2720.5" y="-122.8" font-family="Times,serif" font-size="14.00">data: 4.8284</text>
<polyline fill="none" stroke="black" points="2774,-108.5 2774,-144.5 "/>
<text text-anchor="middle" x="2828" y="-122.8" font-family="Times,serif" font-size="14.00">grad: 0.1464</text>
</g>
<!-- 140193115696304&#45;&gt;140193115696928* -->
<g id="edge24" class="edge">
<title>140193115696304&#45;&gt;140193115696928*</title>
<path fill="none" stroke="black" d="M2882.02,-133.51C2980.71,-139.41 3115.79,-147.5 3179.68,-151.33"/>
<polygon fill="black" stroke="black" points="3179.84,-154.84 3190.03,-151.95 3180.26,-147.85 3179.84,-154.84"/>
</g>
<!-- 140193115696304+ -->
<g id="node7" class="node">
<title>140193115696304+</title>
<ellipse fill="none" stroke="black" cx="2306" cy="-126.5" rx="27" ry="18"/>
<text text-anchor="middle" x="2306" y="-122.8" font-family="Times,serif" font-size="14.00">+</text>
</g>
<!-- 140193115696304+&#45;&gt;140193115696304 -->
<g id="edge3" class="edge">
<title>140193115696304+&#45;&gt;140193115696304</title>
<path fill="none" stroke="black" d="M2333.15,-126.5C2390.58,-126.5 2530.94,-126.5 2635.74,-126.5"/>
<polygon fill="black" stroke="black" points="2635.77,-130 2645.77,-126.5 2635.77,-123 2635.77,-130"/>
</g>
<!-- 140193115695296 -->
<g id="node8" class="node">
<title>140193115695296</title>
<polygon fill="none" stroke="black" points="385,-110.5 385,-146.5 655,-146.5 655,-110.5 385,-110.5"/>
<text text-anchor="middle" x="412.5" y="-124.8" font-family="Times,serif" font-size="14.00">x2w2</text>
<polyline fill="none" stroke="black" points="440,-110.5 440,-146.5 "/>
<text text-anchor="middle" x="493.5" y="-124.8" font-family="Times,serif" font-size="14.00">data: 0.0000</text>
<polyline fill="none" stroke="black" points="547,-110.5 547,-146.5 "/>
<text text-anchor="middle" x="601" y="-124.8" font-family="Times,serif" font-size="14.00">grad: 0.5000</text>
</g>
<!-- 140193115695488+ -->
<g id="node21" class="node">
<title>140193115695488+</title>
<ellipse fill="none" stroke="black" cx="720" cy="-100.5" rx="27" ry="18"/>
<text text-anchor="middle" x="720" y="-96.8" font-family="Times,serif" font-size="14.00">+</text>
</g>
<!-- 140193115695296&#45;&gt;140193115695488+ -->
<g id="edge20" class="edge">
<title>140193115695296&#45;&gt;140193115695488+</title>
<path fill="none" stroke="black" d="M648.36,-110.49C660.95,-108.71 672.87,-107.02 683.21,-105.56"/>
<polygon fill="black" stroke="black" points="683.97,-108.99 693.38,-104.12 682.99,-102.06 683.97,-108.99"/>
</g>
<!-- 140193115695296* -->
<g id="node9" class="node">
<title>140193115695296*</title>
<ellipse fill="none" stroke="black" cx="320" cy="-128.5" rx="27" ry="18"/>
<text text-anchor="middle" x="320" y="-124.8" font-family="Times,serif" font-size="14.00">*</text>
</g>
<!-- 140193115695296*&#45;&gt;140193115695296 -->
<g id="edge4" class="edge">
<title>140193115695296*&#45;&gt;140193115695296</title>
<path fill="none" stroke="black" d="M347.29,-128.5C355.18,-128.5 364.45,-128.5 374.51,-128.5"/>
<polygon fill="black" stroke="black" points="374.82,-132 384.82,-128.5 374.82,-125 374.82,-132"/>
</g>
<!-- 140193465329328 -->
<g id="node10" class="node">
<title>140193465329328</title>
<polygon fill="none" stroke="black" points="829,-137.5 829,-173.5 1070,-173.5 1070,-137.5 829,-137.5"/>
<text text-anchor="middle" x="842" y="-151.8" font-family="Times,serif" font-size="14.00">b</text>
<polyline fill="none" stroke="black" points="855,-137.5 855,-173.5 "/>
<text text-anchor="middle" x="908.5" y="-151.8" font-family="Times,serif" font-size="14.00">data: 6.8814</text>
<polyline fill="none" stroke="black" points="962,-137.5 962,-173.5 "/>
<text text-anchor="middle" x="1016" y="-151.8" font-family="Times,serif" font-size="14.00">grad: 0.5000</text>
</g>
<!-- 140193465329328&#45;&gt;140193115695680+ -->
<g id="edge11" class="edge">
<title>140193465329328&#45;&gt;140193115695680+</title>
<path fill="none" stroke="black" d="M1070.25,-140.76C1096.56,-137.52 1122.45,-134.34 1142.25,-131.9"/>
<polygon fill="black" stroke="black" points="1142.8,-135.36 1152.3,-130.66 1141.95,-128.41 1142.8,-135.36"/>
</g>
<!-- 140193465329376 -->
<g id="node11" class="node">
<title>140193465329376</title>
<polygon fill="none" stroke="black" points="2,-165.5 2,-201.5 255,-201.5 255,-165.5 2,-165.5"/>
<text text-anchor="middle" x="21" y="-179.8" font-family="Times,serif" font-size="14.00">w2</text>
<polyline fill="none" stroke="black" points="40,-165.5 40,-201.5 "/>
<text text-anchor="middle" x="93.5" y="-179.8" font-family="Times,serif" font-size="14.00">data: 1.0000</text>
<polyline fill="none" stroke="black" points="147,-165.5 147,-201.5 "/>
<text text-anchor="middle" x="201" y="-179.8" font-family="Times,serif" font-size="14.00">grad: 0.0000</text>
</g>
<!-- 140193465329376&#45;&gt;140193115695296* -->
<g id="edge25" class="edge">
<title>140193465329376&#45;&gt;140193115695296*</title>
<path fill="none" stroke="black" d="M225.82,-165.43C236.43,-162.75 247,-159.77 257,-156.5 267.72,-152.99 279.07,-148.2 289.08,-143.58"/>
<polygon fill="black" stroke="black" points="290.68,-146.7 298.21,-139.25 287.68,-140.37 290.68,-146.7"/>
</g>
<!-- 140193465330912 -->
<g id="node12" class="node">
<title>140193465330912</title>
<polygon fill="none" stroke="black" points="0,-55.5 0,-91.5 257,-91.5 257,-55.5 0,-55.5"/>
<text text-anchor="middle" x="19" y="-69.8" font-family="Times,serif" font-size="14.00">w1</text>
<polyline fill="none" stroke="black" points="38,-55.5 38,-91.5 "/>
<text text-anchor="middle" x="93.5" y="-69.8" font-family="Times,serif" font-size="14.00">data: &#45;3.0000</text>
<polyline fill="none" stroke="black" points="149,-55.5 149,-91.5 "/>
<text text-anchor="middle" x="203" y="-69.8" font-family="Times,serif" font-size="14.00">grad: 1.0000</text>
</g>
<!-- 140193115691456* -->
<g id="node23" class="node">
<title>140193115691456*</title>
<ellipse fill="none" stroke="black" cx="320" cy="-73.5" rx="27" ry="18"/>
<text text-anchor="middle" x="320" y="-69.8" font-family="Times,serif" font-size="14.00">*</text>
</g>
<!-- 140193465330912&#45;&gt;140193115691456* -->
<g id="edge14" class="edge">
<title>140193465330912&#45;&gt;140193115691456*</title>
<path fill="none" stroke="black" d="M257.21,-73.5C266.39,-73.5 275.09,-73.5 282.91,-73.5"/>
<polygon fill="black" stroke="black" points="283,-77 293,-73.5 283,-70 283,-77"/>
</g>
<!-- 140193465330960 -->
<g id="node13" class="node">
<title>140193465330960</title>
<polygon fill="none" stroke="black" points="4,-110.5 4,-146.5 253,-146.5 253,-110.5 4,-110.5"/>
<text text-anchor="middle" x="21" y="-124.8" font-family="Times,serif" font-size="14.00">x2</text>
<polyline fill="none" stroke="black" points="38,-110.5 38,-146.5 "/>
<text text-anchor="middle" x="91.5" y="-124.8" font-family="Times,serif" font-size="14.00">data: 0.0000</text>
<polyline fill="none" stroke="black" points="145,-110.5 145,-146.5 "/>
<text text-anchor="middle" x="199" y="-124.8" font-family="Times,serif" font-size="14.00">grad: 0.5000</text>
</g>
<!-- 140193465330960&#45;&gt;140193115695296* -->
<g id="edge19" class="edge">
<title>140193465330960&#45;&gt;140193115695296*</title>
<path fill="none" stroke="black" d="M253.25,-128.5C263.74,-128.5 273.7,-128.5 282.55,-128.5"/>
<polygon fill="black" stroke="black" points="282.76,-132 292.76,-128.5 282.76,-125 282.76,-132"/>
</g>
<!-- 140193115696928 -->
<g id="node14" class="node">
<title>140193115696928</title>
<polygon fill="none" stroke="black" points="3280,-135.5 3280,-171.5 3521,-171.5 3521,-135.5 3280,-135.5"/>
<text text-anchor="middle" x="3293" y="-149.8" font-family="Times,serif" font-size="14.00">L</text>
<polyline fill="none" stroke="black" points="3306,-135.5 3306,-171.5 "/>
<text text-anchor="middle" x="3359.5" y="-149.8" font-family="Times,serif" font-size="14.00">data: 0.7071</text>
<polyline fill="none" stroke="black" points="3413,-135.5 3413,-171.5 "/>
<text text-anchor="middle" x="3467" y="-149.8" font-family="Times,serif" font-size="14.00">grad: 1.0000</text>
</g>
<!-- 140193115696928*&#45;&gt;140193115696928 -->
<g id="edge5" class="edge">
<title>140193115696928*&#45;&gt;140193115696928</title>
<path fill="none" stroke="black" d="M3244,-153.5C3251.5,-153.5 3260.22,-153.5 3269.64,-153.5"/>
<polygon fill="black" stroke="black" points="3269.68,-157 3279.68,-153.5 3269.68,-150 3269.68,-157"/>
</g>
<!-- 140193115695920 -->
<g id="node16" class="node">
<title>140193115695920</title>
<polygon fill="none" stroke="black" points="1632,-136.5 1632,-172.5 1868,-172.5 1868,-136.5 1632,-136.5"/>
<text text-anchor="middle" x="1642.5" y="-150.8" font-family="Times,serif" font-size="14.00"> </text>
<polyline fill="none" stroke="black" points="1653,-136.5 1653,-172.5 "/>
<text text-anchor="middle" x="1706.5" y="-150.8" font-family="Times,serif" font-size="14.00">data: 1.7627</text>
<polyline fill="none" stroke="black" points="1760,-136.5 1760,-172.5 "/>
<text text-anchor="middle" x="1814" y="-150.8" font-family="Times,serif" font-size="14.00">grad: 0.2500</text>
</g>
<!-- 140193115696064e -->
<g id="node27" class="node">
<title>140193115696064e</title>
<ellipse fill="none" stroke="black" cx="1931" cy="-154.5" rx="27" ry="18"/>
<text text-anchor="middle" x="1931" y="-150.8" font-family="Times,serif" font-size="14.00">e</text>
</g>
<!-- 140193115695920&#45;&gt;140193115696064e -->
<g id="edge18" class="edge">
<title>140193115695920&#45;&gt;140193115696064e</title>
<path fill="none" stroke="black" d="M1868.15,-154.5C1877.24,-154.5 1885.91,-154.5 1893.73,-154.5"/>
<polygon fill="black" stroke="black" points="1893.82,-158 1903.82,-154.5 1893.82,-151 1893.82,-158"/>
</g>
<!-- 140193115695920*&#45;&gt;140193115695920 -->
<g id="edge6" class="edge">
<title>140193115695920*&#45;&gt;140193115695920</title>
<path fill="none" stroke="black" d="M1596.03,-154.5C1603.58,-154.5 1612.38,-154.5 1621.87,-154.5"/>
<polygon fill="black" stroke="black" points="1621.99,-158 1631.99,-154.5 1621.99,-151 1621.99,-158"/>
</g>
<!-- 140193465332112 -->
<g id="node18" class="node">
<title>140193465332112</title>
<polygon fill="none" stroke="black" points="1.5,-0.5 1.5,-36.5 255.5,-36.5 255.5,-0.5 1.5,-0.5"/>
<text text-anchor="middle" x="18.5" y="-14.8" font-family="Times,serif" font-size="14.00">x1</text>
<polyline fill="none" stroke="black" points="35.5,-0.5 35.5,-36.5 "/>
<text text-anchor="middle" x="89" y="-14.8" font-family="Times,serif" font-size="14.00">data: 2.0000</text>
<polyline fill="none" stroke="black" points="142.5,-0.5 142.5,-36.5 "/>
<text text-anchor="middle" x="199" y="-14.8" font-family="Times,serif" font-size="14.00">grad: &#45;1.5000</text>
</g>
<!-- 140193465332112&#45;&gt;140193115691456* -->
<g id="edge12" class="edge">
<title>140193465332112&#45;&gt;140193115691456*</title>
<path fill="none" stroke="black" d="M225.82,-36.57C236.43,-39.25 247,-42.23 257,-45.5 267.72,-49.01 279.07,-53.8 289.08,-58.42"/>
<polygon fill="black" stroke="black" points="287.68,-61.63 298.21,-62.75 290.68,-55.3 287.68,-61.63"/>
</g>
<!-- 140193115696496 -->
<g id="node19" class="node">
<title>140193115696496</title>
<polygon fill="none" stroke="black" points="1995.5,-191.5 1995.5,-227.5 2241.5,-227.5 2241.5,-191.5 1995.5,-191.5"/>
<text text-anchor="middle" x="2008.5" y="-205.8" font-family="Times,serif" font-size="14.00">1</text>
<polyline fill="none" stroke="black" points="2021.5,-191.5 2021.5,-227.5 "/>
<text text-anchor="middle" x="2075" y="-205.8" font-family="Times,serif" font-size="14.00">data: 1.0000</text>
<polyline fill="none" stroke="black" points="2128.5,-191.5 2128.5,-227.5 "/>
<text text-anchor="middle" x="2185" y="-205.8" font-family="Times,serif" font-size="14.00">grad: &#45;0.1036</text>
</g>
<!-- 140193115696544+ -->
<g id="node25" class="node">
<title>140193115696544+</title>
<ellipse fill="none" stroke="black" cx="2306" cy="-181.5" rx="27" ry="18"/>
<text text-anchor="middle" x="2306" y="-177.8" font-family="Times,serif" font-size="14.00">+</text>
</g>
<!-- 140193115696496&#45;&gt;140193115696544+ -->
<g id="edge17" class="edge">
<title>140193115696496&#45;&gt;140193115696544+</title>
<path fill="none" stroke="black" d="M2238.82,-191.49C2249.73,-189.84 2260.12,-188.27 2269.28,-186.89"/>
<polygon fill="black" stroke="black" points="2270.08,-190.31 2279.45,-185.36 2269.04,-183.39 2270.08,-190.31"/>
</g>
<!-- 140193115695488 -->
<g id="node20" class="node">
<title>140193115695488</title>
<polygon fill="none" stroke="black" points="783,-82.5 783,-118.5 1116,-118.5 1116,-82.5 783,-82.5"/>
<text text-anchor="middle" x="840" y="-96.8" font-family="Times,serif" font-size="14.00">x1w1 + x2w2</text>
<polyline fill="none" stroke="black" points="897,-82.5 897,-118.5 "/>
<text text-anchor="middle" x="952.5" y="-96.8" font-family="Times,serif" font-size="14.00">data: &#45;6.0000</text>
<polyline fill="none" stroke="black" points="1008,-82.5 1008,-118.5 "/>
<text text-anchor="middle" x="1062" y="-96.8" font-family="Times,serif" font-size="14.00">grad: 0.5000</text>
</g>
<!-- 140193115695488&#45;&gt;140193115695680+ -->
<g id="edge26" class="edge">
<title>140193115695488&#45;&gt;140193115695680+</title>
<path fill="none" stroke="black" d="M1102.25,-118.51C1116.85,-120.24 1130.51,-121.86 1142.09,-123.24"/>
<polygon fill="black" stroke="black" points="1141.78,-126.73 1152.12,-124.43 1142.6,-119.77 1141.78,-126.73"/>
</g>
<!-- 140193115695488+&#45;&gt;140193115695488 -->
<g id="edge7" class="edge">
<title>140193115695488+&#45;&gt;140193115695488</title>
<path fill="none" stroke="black" d="M747.1,-100.5C754.46,-100.5 763.07,-100.5 772.5,-100.5"/>
<polygon fill="black" stroke="black" points="772.61,-104 782.61,-100.5 772.61,-97 772.61,-104"/>
</g>
<!-- 140193115691456 -->
<g id="node22" class="node">
<title>140193115691456</title>
<polygon fill="none" stroke="black" points="383,-55.5 383,-91.5 657,-91.5 657,-55.5 383,-55.5"/>
<text text-anchor="middle" x="410.5" y="-69.8" font-family="Times,serif" font-size="14.00">x1w1</text>
<polyline fill="none" stroke="black" points="438,-55.5 438,-91.5 "/>
<text text-anchor="middle" x="493.5" y="-69.8" font-family="Times,serif" font-size="14.00">data: &#45;6.0000</text>
<polyline fill="none" stroke="black" points="549,-55.5 549,-91.5 "/>
<text text-anchor="middle" x="603" y="-69.8" font-family="Times,serif" font-size="14.00">grad: 0.5000</text>
</g>
<!-- 140193115691456&#45;&gt;140193115695488+ -->
<g id="edge22" class="edge">
<title>140193115691456&#45;&gt;140193115695488+</title>
<path fill="none" stroke="black" d="M653.07,-91.51C663.98,-93 674.29,-94.4 683.36,-95.64"/>
<polygon fill="black" stroke="black" points="683.04,-99.13 693.42,-97.01 683.99,-92.19 683.04,-99.13"/>
</g>
<!-- 140193115691456*&#45;&gt;140193115691456 -->
<g id="edge8" class="edge">
<title>140193115691456*&#45;&gt;140193115691456</title>
<path fill="none" stroke="black" d="M347.29,-73.5C354.71,-73.5 363.34,-73.5 372.71,-73.5"/>
<polygon fill="black" stroke="black" points="372.72,-77 382.72,-73.5 372.72,-70 372.72,-77"/>
</g>
<!-- 140193115696544 -->
<g id="node24" class="node">
<title>140193115696544</title>
<polygon fill="none" stroke="black" points="2369,-163.5 2369,-199.5 2610,-199.5 2610,-163.5 2369,-163.5"/>
<text text-anchor="middle" x="2379.5" y="-177.8" font-family="Times,serif" font-size="14.00"> </text>
<polyline fill="none" stroke="black" points="2390,-163.5 2390,-199.5 "/>
<text text-anchor="middle" x="2443.5" y="-177.8" font-family="Times,serif" font-size="14.00">data: 6.8284</text>
<polyline fill="none" stroke="black" points="2497,-163.5 2497,-199.5 "/>
<text text-anchor="middle" x="2553.5" y="-177.8" font-family="Times,serif" font-size="14.00">grad: &#45;0.1036</text>
</g>
<!-- 140193115696544&#45;&gt;140193115696736**&#45;1 -->
<g id="edge16" class="edge">
<title>140193115696544&#45;&gt;140193115696736**&#45;1</title>
<path fill="none" stroke="black" d="M2610.02,-181.5C2651.6,-181.5 2695.28,-181.5 2725.27,-181.5"/>
<polygon fill="black" stroke="black" points="2725.29,-185 2735.29,-181.5 2725.29,-178 2725.29,-185"/>
</g>
<!-- 140193115696544+&#45;&gt;140193115696544 -->
<g id="edge9" class="edge">
<title>140193115696544+&#45;&gt;140193115696544</title>
<path fill="none" stroke="black" d="M2333,-181.5C2340.5,-181.5 2349.22,-181.5 2358.64,-181.5"/>
<polygon fill="black" stroke="black" points="2358.68,-185 2368.68,-181.5 2358.68,-178 2358.68,-185"/>
</g>
<!-- 140193115696064 -->
<g id="node26" class="node">
<title>140193115696064</title>
<polygon fill="none" stroke="black" points="1998.5,-136.5 1998.5,-172.5 2238.5,-172.5 2238.5,-136.5 1998.5,-136.5"/>
<text text-anchor="middle" x="2011" y="-150.8" font-family="Times,serif" font-size="14.00">e</text>
<polyline fill="none" stroke="black" points="2023.5,-136.5 2023.5,-172.5 "/>
<text text-anchor="middle" x="2077" y="-150.8" font-family="Times,serif" font-size="14.00">data: 5.8284</text>
<polyline fill="none" stroke="black" points="2130.5,-136.5 2130.5,-172.5 "/>
<text text-anchor="middle" x="2184.5" y="-150.8" font-family="Times,serif" font-size="14.00">grad: 0.0429</text>
</g>
<!-- 140193115696064&#45;&gt;140193115696304+ -->
<g id="edge23" class="edge">
<title>140193115696064&#45;&gt;140193115696304+</title>
<path fill="none" stroke="black" d="M2238.55,-136.53C2249.63,-134.86 2260.15,-133.27 2269.43,-131.87"/>
<polygon fill="black" stroke="black" points="2269.97,-135.33 2279.33,-130.37 2268.92,-128.41 2269.97,-135.33"/>
</g>
<!-- 140193115696064&#45;&gt;140193115696544+ -->
<g id="edge28" class="edge">
<title>140193115696064&#45;&gt;140193115696544+</title>
<path fill="none" stroke="black" d="M2238.55,-171.83C2249.63,-173.44 2260.15,-174.97 2269.43,-176.32"/>
<polygon fill="black" stroke="black" points="2268.94,-179.79 2279.33,-177.76 2269.94,-172.86 2268.94,-179.79"/>
</g>
<!-- 140193115696064e&#45;&gt;140193115696064 -->
<g id="edge10" class="edge">
<title>140193115696064e&#45;&gt;140193115696064</title>
<path fill="none" stroke="black" d="M1958.18,-154.5C1966.75,-154.5 1976.91,-154.5 1987.9,-154.5"/>
<polygon fill="black" stroke="black" points="1988.2,-158 1998.2,-154.5 1988.2,-151 1988.2,-158"/>
</g>
<!-- 140193115696112 -->
<g id="node28" class="node">
<title>140193115696112</title>
<polygon fill="none" stroke="black" points="1994,-81.5 1994,-117.5 2243,-117.5 2243,-81.5 1994,-81.5"/>
<text text-anchor="middle" x="2009" y="-95.8" font-family="Times,serif" font-size="14.00">&#45;1</text>
<polyline fill="none" stroke="black" points="2024,-81.5 2024,-117.5 "/>
<text text-anchor="middle" x="2079.5" y="-95.8" font-family="Times,serif" font-size="14.00">data: &#45;1.0000</text>
<polyline fill="none" stroke="black" points="2135,-81.5 2135,-117.5 "/>
<text text-anchor="middle" x="2189" y="-95.8" font-family="Times,serif" font-size="14.00">grad: 0.1464</text>
</g>
<!-- 140193115696112&#45;&gt;140193115696304+ -->
<g id="edge21" class="edge">
<title>140193115696112&#45;&gt;140193115696304+</title>
<path fill="none" stroke="black" d="M2243.23,-117.51C2252.66,-118.88 2261.6,-120.18 2269.61,-121.35"/>
<polygon fill="black" stroke="black" points="2269.15,-124.82 2279.55,-122.8 2270.16,-117.89 2269.15,-124.82"/>
</g>
</g>
</svg>
