<?xml version="1.0" encoding="UTF-8" standalone="no"?>
<!DOCTYPE svg PUBLIC "-//W3C//DTD SVG 1.1//EN"
 "http://www.w3.org/Graphics/SVG/1.1/DTD/svg11.dtd">
<!-- Generated by graphviz version 2.43.0 (0)
 -->
<!-- Title: %3 Pages: 1 -->
<svg width="1380pt" height="128pt"
 viewBox="0.00 0.00 1380.00 128.00" xmlns="http://www.w3.org/2000/svg" xmlns:xlink="http://www.w3.org/1999/xlink">
<g id="graph0" class="graph" transform="scale(1 1) rotate(0) translate(4 124)">
<title>%3</title>
<polygon fill="white" stroke="transparent" points="-4,4 -4,-124 1376,-124 1376,4 -4,4"/>
<!-- 139923213316112 -->
<g id="node1" class="node">
<title>139923213316112</title>
<polygon fill="none" stroke="black" points="757.5,-82.5 757.5,-118.5 998.5,-118.5 998.5,-82.5 757.5,-82.5"/>
<text text-anchor="middle" x="768.5" y="-96.8" font-family="Times,serif" font-size="14.00">f</text>
<polyline fill="none" stroke="black" points="779.5,-82.5 779.5,-118.5 "/>
<text text-anchor="middle" x="835" y="-96.8" font-family="Times,serif" font-size="14.00">data: &#45;2.0000</text>
<polyline fill="none" stroke="black" points="890.5,-82.5 890.5,-118.5 "/>
<text text-anchor="middle" x="944.5" y="-96.8" font-family="Times,serif" font-size="14.00">grad: 4.0000</text>
</g>
<!-- 139923213316256* -->
<g id="node4" class="node">
<title>139923213316256*</title>
<ellipse fill="none" stroke="black" cx="1064" cy="-72.5" rx="27" ry="18"/>
<text text-anchor="middle" x="1064" y="-68.8" font-family="Times,serif" font-size="14.00">*</text>
</g>
<!-- 139923213316112&#45;&gt;139923213316256* -->
<g id="edge4" class="edge">
<title>139923213316112&#45;&gt;139923213316256*</title>
<path fill="none" stroke="black" d="M997.35,-82.49C1008.08,-80.86 1018.29,-79.3 1027.32,-77.93"/>
<polygon fill="black" stroke="black" points="1027.98,-81.37 1037.34,-76.4 1026.93,-74.45 1027.98,-81.37"/>
</g>
<!-- 139923215285792 -->
<g id="node2" class="node">
<title>139923215285792</title>
<polygon fill="none" stroke="black" points="0,-83.5 0,-119.5 250,-119.5 250,-83.5 0,-83.5"/>
<text text-anchor="middle" x="13" y="-97.8" font-family="Times,serif" font-size="14.00">b</text>
<polyline fill="none" stroke="black" points="26,-83.5 26,-119.5 "/>
<text text-anchor="middle" x="81.5" y="-97.8" font-family="Times,serif" font-size="14.00">data: &#45;3.0000</text>
<polyline fill="none" stroke="black" points="137,-83.5 137,-119.5 "/>
<text text-anchor="middle" x="193.5" y="-97.8" font-family="Times,serif" font-size="14.00">grad: &#45;4.0000</text>
</g>
<!-- 139923213316016* -->
<g id="node6" class="node">
<title>139923213316016*</title>
<ellipse fill="none" stroke="black" cx="313" cy="-73.5" rx="27" ry="18"/>
<text text-anchor="middle" x="313" y="-69.8" font-family="Times,serif" font-size="14.00">*</text>
</g>
<!-- 139923215285792&#45;&gt;139923213316016* -->
<g id="edge9" class="edge">
<title>139923215285792&#45;&gt;139923213316016*</title>
<path fill="none" stroke="black" d="M245.64,-83.49C256.7,-81.82 267.22,-80.24 276.49,-78.85"/>
<polygon fill="black" stroke="black" points="277.01,-82.31 286.38,-77.36 275.97,-75.38 277.01,-82.31"/>
</g>
<!-- 139923213316256 -->
<g id="node3" class="node">
<title>139923213316256</title>
<polygon fill="none" stroke="black" points="1127,-54.5 1127,-90.5 1372,-90.5 1372,-54.5 1127,-54.5"/>
<text text-anchor="middle" x="1140" y="-68.8" font-family="Times,serif" font-size="14.00">L</text>
<polyline fill="none" stroke="black" points="1153,-54.5 1153,-90.5 "/>
<text text-anchor="middle" x="1208.5" y="-68.8" font-family="Times,serif" font-size="14.00">data: &#45;8.0000</text>
<polyline fill="none" stroke="black" points="1264,-54.5 1264,-90.5 "/>
<text text-anchor="middle" x="1318" y="-68.8" font-family="Times,serif" font-size="14.00">grad: 1.0000</text>
</g>
<!-- 139923213316256*&#45;&gt;139923213316256 -->
<g id="edge1" class="edge">
<title>139923213316256*&#45;&gt;139923213316256</title>
<path fill="none" stroke="black" d="M1091.29,-72.5C1098.79,-72.5 1107.51,-72.5 1116.93,-72.5"/>
<polygon fill="black" stroke="black" points="1116.97,-76 1126.97,-72.5 1116.97,-69 1116.97,-76"/>
</g>
<!-- 139923213316016 -->
<g id="node5" class="node">
<title>139923213316016</title>
<polygon fill="none" stroke="black" points="378,-55.5 378,-91.5 627,-91.5 627,-55.5 378,-55.5"/>
<text text-anchor="middle" x="390.5" y="-69.8" font-family="Times,serif" font-size="14.00">e</text>
<polyline fill="none" stroke="black" points="403,-55.5 403,-91.5 "/>
<text text-anchor="middle" x="458.5" y="-69.8" font-family="Times,serif" font-size="14.00">data: &#45;6.0000</text>
<polyline fill="none" stroke="black" points="514,-55.5 514,-91.5 "/>
<text text-anchor="middle" x="570.5" y="-69.8" font-family="Times,serif" font-size="14.00">grad: &#45;2.0000</text>
</g>
<!-- 139923213316064+ -->
<g id="node9" class="node">
<title>139923213316064+</title>
<ellipse fill="none" stroke="black" cx="692" cy="-45.5" rx="27" ry="18"/>
<text text-anchor="middle" x="692" y="-41.8" font-family="Times,serif" font-size="14.00">+</text>
</g>
<!-- 139923213316016&#45;&gt;139923213316064+ -->
<g id="edge8" class="edge">
<title>139923213316016&#45;&gt;139923213316064+</title>
<path fill="none" stroke="black" d="M624.1,-55.49C635.36,-53.81 646.06,-52.21 655.46,-50.81"/>
<polygon fill="black" stroke="black" points="656.11,-54.25 665.49,-49.31 655.08,-47.33 656.11,-54.25"/>
</g>
<!-- 139923213316016*&#45;&gt;139923213316016 -->
<g id="edge2" class="edge">
<title>139923213316016*&#45;&gt;139923213316016</title>
<path fill="none" stroke="black" d="M340.07,-73.5C348,-73.5 357.3,-73.5 367.38,-73.5"/>
<polygon fill="black" stroke="black" points="367.68,-77 377.68,-73.5 367.68,-70 367.68,-77"/>
</g>
<!-- 139923215286224 -->
<g id="node7" class="node">
<title>139923215286224</title>
<polygon fill="none" stroke="black" points="5,-28.5 5,-64.5 245,-64.5 245,-28.5 5,-28.5"/>
<text text-anchor="middle" x="17.5" y="-42.8" font-family="Times,serif" font-size="14.00">a</text>
<polyline fill="none" stroke="black" points="30,-28.5 30,-64.5 "/>
<text text-anchor="middle" x="83.5" y="-42.8" font-family="Times,serif" font-size="14.00">data: 2.0000</text>
<polyline fill="none" stroke="black" points="137,-28.5 137,-64.5 "/>
<text text-anchor="middle" x="191" y="-42.8" font-family="Times,serif" font-size="14.00">grad: 6.0000</text>
</g>
<!-- 139923215286224&#45;&gt;139923213316016* -->
<g id="edge6" class="edge">
<title>139923215286224&#45;&gt;139923213316016*</title>
<path fill="none" stroke="black" d="M245.11,-63.79C256.35,-65.42 267.04,-66.97 276.44,-68.34"/>
<polygon fill="black" stroke="black" points="276.07,-71.82 286.47,-69.79 277.08,-64.89 276.07,-71.82"/>
</g>
<!-- 139923213316064 -->
<g id="node8" class="node">
<title>139923213316064</title>
<polygon fill="none" stroke="black" points="755,-27.5 755,-63.5 1001,-63.5 1001,-27.5 755,-27.5"/>
<text text-anchor="middle" x="768" y="-41.8" font-family="Times,serif" font-size="14.00">d</text>
<polyline fill="none" stroke="black" points="781,-27.5 781,-63.5 "/>
<text text-anchor="middle" x="834.5" y="-41.8" font-family="Times,serif" font-size="14.00">data: 4.0000</text>
<polyline fill="none" stroke="black" points="888,-27.5 888,-63.5 "/>
<text text-anchor="middle" x="944.5" y="-41.8" font-family="Times,serif" font-size="14.00">grad: &#45;2.0000</text>
</g>
<!-- 139923213316064&#45;&gt;139923213316256* -->
<g id="edge7" class="edge">
<title>139923213316064&#45;&gt;139923213316256*</title>
<path fill="none" stroke="black" d="M1001.22,-63.43C1010.63,-64.82 1019.57,-66.13 1027.58,-67.3"/>
<polygon fill="black" stroke="black" points="1027.13,-70.77 1037.53,-68.76 1028.14,-63.85 1027.13,-70.77"/>
</g>
<!-- 139923213316064+&#45;&gt;139923213316064 -->
<g id="edge3" class="edge">
<title>139923213316064+&#45;&gt;139923213316064</title>
<path fill="none" stroke="black" d="M719.36,-45.5C726.73,-45.5 735.28,-45.5 744.5,-45.5"/>
<polygon fill="black" stroke="black" points="744.75,-49 754.75,-45.5 744.75,-42 744.75,-49"/>
</g>
<!-- 139923215284208 -->
<g id="node10" class="node">
<title>139923215284208</title>
<polygon fill="none" stroke="black" points="376,-0.5 376,-36.5 629,-36.5 629,-0.5 376,-0.5"/>
<text text-anchor="middle" x="388" y="-14.8" font-family="Times,serif" font-size="14.00">c</text>
<polyline fill="none" stroke="black" points="400,-0.5 400,-36.5 "/>
<text text-anchor="middle" x="458" y="-14.8" font-family="Times,serif" font-size="14.00">data: 10.0000</text>
<polyline fill="none" stroke="black" points="516,-0.5 516,-36.5 "/>
<text text-anchor="middle" x="572.5" y="-14.8" font-family="Times,serif" font-size="14.00">grad: &#45;2.0000</text>
</g>
<!-- 139923215284208&#45;&gt;139923213316064+ -->
<g id="edge5" class="edge">
<title>139923215284208&#45;&gt;139923213316064+</title>
<path fill="none" stroke="black" d="M628.57,-36.51C638.09,-37.88 647.13,-39.18 655.23,-40.35"/>
<polygon fill="black" stroke="black" points="654.88,-43.84 665.28,-41.8 655.88,-36.91 654.88,-43.84"/>
</g>
</g>
</svg>
