<?xml version="1.0" encoding="UTF-8" standalone="no"?>
<!DOCTYPE svg PUBLIC "-//W3C//DTD SVG 1.1//EN"
 "http://www.w3.org/Graphics/SVG/1.1/DTD/svg11.dtd">
<!-- Generated by graphviz version 2.43.0 (0)
 -->
<!-- Title: %3 Pages: 1 -->
<svg width="825pt" height="156pt"
 viewBox="0.00 0.00 825.00 156.00" xmlns="http://www.w3.org/2000/svg" xmlns:xlink="http://www.w3.org/1999/xlink">
<g id="graph0" class="graph" transform="scale(1 1) rotate(0) translate(4 152)">
<title>%3</title>
<polygon fill="white" stroke="transparent" points="-4,4 -4,-152 821,-152 821,4 -4,4"/>
<!-- 139946762567200 -->
<g id="node1" class="node">
<title>139946762567200</title>
<polygon fill="none" stroke="black" points="0,-111.5 0,-147.5 110,-147.5 110,-111.5 0,-111.5"/>
<text text-anchor="middle" x="13" y="-125.8" font-family="Times,serif" font-size="14.00">b</text>
<polyline fill="none" stroke="black" points="26,-111.5 26,-147.5 "/>
<text text-anchor="middle" x="68" y="-125.8" font-family="Times,serif" font-size="14.00">data: &#45;3.0</text>
</g>
<!-- 139946760609872* -->
<g id="node3" class="node">
<title>139946760609872*</title>
<ellipse fill="none" stroke="black" cx="173" cy="-101.5" rx="27" ry="18"/>
<text text-anchor="middle" x="173" y="-97.8" font-family="Times,serif" font-size="14.00">*</text>
</g>
<!-- 139946762567200&#45;&gt;139946760609872* -->
<g id="edge9" class="edge">
<title>139946762567200&#45;&gt;139946760609872*</title>
<path fill="none" stroke="black" d="M110.26,-116.4C119.49,-114.18 128.84,-111.92 137.37,-109.86"/>
<polygon fill="black" stroke="black" points="138.42,-113.21 147.32,-107.46 136.78,-106.4 138.42,-113.21"/>
</g>
<!-- 139946760609872 -->
<g id="node2" class="node">
<title>139946760609872</title>
<polygon fill="none" stroke="black" points="238,-83.5 238,-119.5 347,-119.5 347,-83.5 238,-83.5"/>
<text text-anchor="middle" x="250.5" y="-97.8" font-family="Times,serif" font-size="14.00">e</text>
<polyline fill="none" stroke="black" points="263,-83.5 263,-119.5 "/>
<text text-anchor="middle" x="305" y="-97.8" font-family="Times,serif" font-size="14.00">data: &#45;6.0</text>
</g>
<!-- 139946760609920+ -->
<g id="node5" class="node">
<title>139946760609920+</title>
<ellipse fill="none" stroke="black" cx="412" cy="-73.5" rx="27" ry="18"/>
<text text-anchor="middle" x="412" y="-69.8" font-family="Times,serif" font-size="14.00">+</text>
</g>
<!-- 139946760609872&#45;&gt;139946760609920+ -->
<g id="edge4" class="edge">
<title>139946760609872&#45;&gt;139946760609920+</title>
<path fill="none" stroke="black" d="M347.09,-88.73C357.03,-86.36 367.17,-83.95 376.35,-81.76"/>
<polygon fill="black" stroke="black" points="377.34,-85.12 386.26,-79.4 375.72,-78.31 377.34,-85.12"/>
</g>
<!-- 139946760609872*&#45;&gt;139946760609872 -->
<g id="edge1" class="edge">
<title>139946760609872*&#45;&gt;139946760609872</title>
<path fill="none" stroke="black" d="M200.08,-101.5C208.31,-101.5 217.79,-101.5 227.47,-101.5"/>
<polygon fill="black" stroke="black" points="227.58,-105 237.58,-101.5 227.58,-98 227.58,-105"/>
</g>
<!-- 139946760609920 -->
<g id="node4" class="node">
<title>139946760609920</title>
<polygon fill="none" stroke="black" points="475,-55.5 475,-91.5 581,-91.5 581,-55.5 475,-55.5"/>
<text text-anchor="middle" x="488" y="-69.8" font-family="Times,serif" font-size="14.00">d</text>
<polyline fill="none" stroke="black" points="501,-55.5 501,-91.5 "/>
<text text-anchor="middle" x="541" y="-69.8" font-family="Times,serif" font-size="14.00">data: 4.0</text>
</g>
<!-- 139946760610112* -->
<g id="node8" class="node">
<title>139946760610112*</title>
<ellipse fill="none" stroke="black" cx="644" cy="-45.5" rx="27" ry="18"/>
<text text-anchor="middle" x="644" y="-41.8" font-family="Times,serif" font-size="14.00">*</text>
</g>
<!-- 139946760609920&#45;&gt;139946760610112* -->
<g id="edge8" class="edge">
<title>139946760609920&#45;&gt;139946760610112*</title>
<path fill="none" stroke="black" d="M581.33,-60.65C590.48,-58.4 599.8,-56.11 608.33,-54.02"/>
<polygon fill="black" stroke="black" points="609.39,-57.36 618.27,-51.57 607.72,-50.56 609.39,-57.36"/>
</g>
<!-- 139946760609920+&#45;&gt;139946760609920 -->
<g id="edge2" class="edge">
<title>139946760609920+&#45;&gt;139946760609920</title>
<path fill="none" stroke="black" d="M439.15,-73.5C446.89,-73.5 455.71,-73.5 464.71,-73.5"/>
<polygon fill="black" stroke="black" points="464.9,-77 474.9,-73.5 464.9,-70 464.9,-77"/>
</g>
<!-- 139946760609968 -->
<g id="node6" class="node">
<title>139946760609968</title>
<polygon fill="none" stroke="black" points="475,-0.5 475,-36.5 581,-36.5 581,-0.5 475,-0.5"/>
<text text-anchor="middle" x="486" y="-14.8" font-family="Times,serif" font-size="14.00">f</text>
<polyline fill="none" stroke="black" points="497,-0.5 497,-36.5 "/>
<text text-anchor="middle" x="539" y="-14.8" font-family="Times,serif" font-size="14.00">data: &#45;2.0</text>
</g>
<!-- 139946760609968&#45;&gt;139946760610112* -->
<g id="edge7" class="edge">
<title>139946760609968&#45;&gt;139946760610112*</title>
<path fill="none" stroke="black" d="M581.33,-30.89C590.48,-33.06 599.8,-35.27 608.33,-37.29"/>
<polygon fill="black" stroke="black" points="607.73,-40.74 618.27,-39.64 609.34,-33.93 607.73,-40.74"/>
</g>
<!-- 139946760610112 -->
<g id="node7" class="node">
<title>139946760610112</title>
<polygon fill="none" stroke="black" points="707,-27.5 707,-63.5 817,-63.5 817,-27.5 707,-27.5"/>
<text text-anchor="middle" x="720" y="-41.8" font-family="Times,serif" font-size="14.00">L</text>
<polyline fill="none" stroke="black" points="733,-27.5 733,-63.5 "/>
<text text-anchor="middle" x="775" y="-41.8" font-family="Times,serif" font-size="14.00">data: &#45;8.0</text>
</g>
<!-- 139946760610112*&#45;&gt;139946760610112 -->
<g id="edge3" class="edge">
<title>139946760610112*&#45;&gt;139946760610112</title>
<path fill="none" stroke="black" d="M671.03,-45.5C678.7,-45.5 687.45,-45.5 696.42,-45.5"/>
<polygon fill="black" stroke="black" points="696.58,-49 706.58,-45.5 696.58,-42 696.58,-49"/>
</g>
<!-- 139946762567632 -->
<g id="node9" class="node">
<title>139946762567632</title>
<polygon fill="none" stroke="black" points="2.5,-56.5 2.5,-92.5 107.5,-92.5 107.5,-56.5 2.5,-56.5"/>
<text text-anchor="middle" x="15" y="-70.8" font-family="Times,serif" font-size="14.00">a</text>
<polyline fill="none" stroke="black" points="27.5,-56.5 27.5,-92.5 "/>
<text text-anchor="middle" x="67.5" y="-70.8" font-family="Times,serif" font-size="14.00">data: 2.0</text>
</g>
<!-- 139946762567632&#45;&gt;139946760609872* -->
<g id="edge5" class="edge">
<title>139946762567632&#45;&gt;139946760609872*</title>
<path fill="none" stroke="black" d="M107.55,-86.5C117.69,-88.86 128.08,-91.28 137.49,-93.47"/>
<polygon fill="black" stroke="black" points="136.71,-96.88 147.25,-95.74 138.3,-90.06 136.71,-96.88"/>
</g>
<!-- 139946762565616 -->
<g id="node10" class="node">
<title>139946762565616</title>
<polygon fill="none" stroke="black" points="236,-28.5 236,-64.5 349,-64.5 349,-28.5 236,-28.5"/>
<text text-anchor="middle" x="248" y="-42.8" font-family="Times,serif" font-size="14.00">c</text>
<polyline fill="none" stroke="black" points="260,-28.5 260,-64.5 "/>
<text text-anchor="middle" x="304.5" y="-42.8" font-family="Times,serif" font-size="14.00">data: 10.0</text>
</g>
<!-- 139946762565616&#45;&gt;139946760609920+ -->
<g id="edge6" class="edge">
<title>139946762565616&#45;&gt;139946760609920+</title>
<path fill="none" stroke="black" d="M349.15,-59.29C358.43,-61.42 367.81,-63.58 376.37,-65.54"/>
<polygon fill="black" stroke="black" points="375.8,-69 386.33,-67.83 377.37,-62.18 375.8,-69"/>
</g>
</g>
</svg>
