<?xml version="1.0" encoding="UTF-8" standalone="no"?>
<!DOCTYPE svg PUBLIC "-//W3C//DTD SVG 1.1//EN"
 "http://www.w3.org/Graphics/SVG/1.1/DTD/svg11.dtd">
<!-- Generated by graphviz version 2.43.0 (0)
 -->
<!-- Title: %3 Pages: 1 -->
<svg width="628pt" height="45pt"
 viewBox="0.00 0.00 628.00 45.00" xmlns="http://www.w3.org/2000/svg" xmlns:xlink="http://www.w3.org/1999/xlink">
<g id="graph0" class="graph" transform="scale(1 1) rotate(0) translate(4 41)">
<title>%3</title>
<polygon fill="white" stroke="transparent" points="-4,4 -4,-41 624,-41 624,4 -4,4"/>
<!-- 139756918683152 -->
<g id="node1" class="node">
<title>139756918683152</title>
<polygon fill="none" stroke="black" points="375,-0.5 375,-36.5 620,-36.5 620,-0.5 375,-0.5"/>
<text text-anchor="middle" x="385.5" y="-14.8" font-family="Times,serif" font-size="14.00"> </text>
<polyline fill="none" stroke="black" points="396,-0.5 396,-36.5 "/>
<text text-anchor="middle" x="454" y="-14.8" font-family="Times,serif" font-size="14.00">data: 20.0000</text>
<polyline fill="none" stroke="black" points="512,-0.5 512,-36.5 "/>
<text text-anchor="middle" x="566" y="-14.8" font-family="Times,serif" font-size="14.00">grad: 1.0000</text>
</g>
<!-- 139756918683152+ -->
<g id="node2" class="node">
<title>139756918683152+</title>
<ellipse fill="none" stroke="black" cx="312" cy="-18.5" rx="27" ry="18"/>
<text text-anchor="middle" x="312" y="-14.8" font-family="Times,serif" font-size="14.00">+</text>
</g>
<!-- 139756918683152+&#45;&gt;139756918683152 -->
<g id="edge1" class="edge">
<title>139756918683152+&#45;&gt;139756918683152</title>
<path fill="none" stroke="black" d="M339.29,-18.5C346.79,-18.5 355.51,-18.5 364.93,-18.5"/>
<polygon fill="black" stroke="black" points="364.97,-22 374.97,-18.5 364.97,-15 364.97,-22"/>
</g>
<!-- 139756918685648 -->
<g id="node3" class="node">
<title>139756918685648</title>
<polygon fill="none" stroke="black" points="0,-0.5 0,-36.5 249,-36.5 249,-0.5 0,-0.5"/>
<text text-anchor="middle" x="12.5" y="-14.8" font-family="Times,serif" font-size="14.00">x</text>
<polyline fill="none" stroke="black" points="25,-0.5 25,-36.5 "/>
<text text-anchor="middle" x="83" y="-14.8" font-family="Times,serif" font-size="14.00">data: 10.0000</text>
<polyline fill="none" stroke="black" points="141,-0.5 141,-36.5 "/>
<text text-anchor="middle" x="195" y="-14.8" font-family="Times,serif" font-size="14.00">grad: 2.0000</text>
</g>
<!-- 139756918685648&#45;&gt;139756918683152+ -->
<g id="edge2" class="edge">
<title>139756918685648&#45;&gt;139756918683152+</title>
<path fill="none" stroke="black" d="M249.23,-18.5C258.37,-18.5 267.05,-18.5 274.87,-18.5"/>
<polygon fill="black" stroke="black" points="274.95,-22 284.95,-18.5 274.95,-15 274.95,-22"/>
</g>
</g>
</svg>
