<?xml version="1.0" encoding="UTF-8" standalone="no"?>
<!DOCTYPE svg PUBLIC "-//W3C//DTD SVG 1.1//EN"
 "http://www.w3.org/Graphics/SVG/1.1/DTD/svg11.dtd">
<!-- Generated by graphviz version 2.43.0 (0)
 -->
<!-- Title: %3 Pages: 1 -->
<svg width="1891pt" height="210pt"
 viewBox="0.00 0.00 1890.69 210.00" xmlns="http://www.w3.org/2000/svg" xmlns:xlink="http://www.w3.org/1999/xlink">
<g id="graph0" class="graph" transform="scale(1 1) rotate(0) translate(4 206)">
<title>%3</title>
<polygon fill="white" stroke="transparent" points="-4,4 -4,-206 1886.69,-206 1886.69,4 -4,4"/>
<!-- 140109159317024 -->
<g id="node1" class="node">
<title>140109159317024</title>
<polygon fill="none" stroke="black" points="385,-55.5 385,-91.5 655,-91.5 655,-55.5 385,-55.5"/>
<text text-anchor="middle" x="412.5" y="-69.8" font-family="Times,serif" font-size="14.00">x2w2</text>
<polyline fill="none" stroke="black" points="440,-55.5 440,-91.5 "/>
<text text-anchor="middle" x="493.5" y="-69.8" font-family="Times,serif" font-size="14.00">data: 0.0000</text>
<polyline fill="none" stroke="black" points="547,-55.5 547,-91.5 "/>
<text text-anchor="middle" x="601" y="-69.8" font-family="Times,serif" font-size="14.00">grad: 0.5000</text>
</g>
<!-- 140109159317120+ -->
<g id="node4" class="node">
<title>140109159317120+</title>
<ellipse fill="none" stroke="black" cx="720" cy="-100.5" rx="27" ry="18"/>
<text text-anchor="middle" x="720" y="-96.8" font-family="Times,serif" font-size="14.00">+</text>
</g>
<!-- 140109159317024&#45;&gt;140109159317120+ -->
<g id="edge14" class="edge">
<title>140109159317024&#45;&gt;140109159317120+</title>
<path fill="none" stroke="black" d="M653.07,-91.51C663.98,-93 674.29,-94.4 683.36,-95.64"/>
<polygon fill="black" stroke="black" points="683.04,-99.13 693.42,-97.01 683.99,-92.19 683.04,-99.13"/>
</g>
<!-- 140109159317024* -->
<g id="node2" class="node">
<title>140109159317024*</title>
<ellipse fill="none" stroke="black" cx="320" cy="-73.5" rx="27" ry="18"/>
<text text-anchor="middle" x="320" y="-69.8" font-family="Times,serif" font-size="14.00">*</text>
</g>
<!-- 140109159317024*&#45;&gt;140109159317024 -->
<g id="edge1" class="edge">
<title>140109159317024*&#45;&gt;140109159317024</title>
<path fill="none" stroke="black" d="M347.29,-73.5C355.18,-73.5 364.45,-73.5 374.51,-73.5"/>
<polygon fill="black" stroke="black" points="374.82,-77 384.82,-73.5 374.82,-70 374.82,-77"/>
</g>
<!-- 140109159317120 -->
<g id="node3" class="node">
<title>140109159317120</title>
<polygon fill="none" stroke="black" points="783,-82.5 783,-118.5 1116,-118.5 1116,-82.5 783,-82.5"/>
<text text-anchor="middle" x="840" y="-96.8" font-family="Times,serif" font-size="14.00">x1w1 + x2w2</text>
<polyline fill="none" stroke="black" points="897,-82.5 897,-118.5 "/>
<text text-anchor="middle" x="952.5" y="-96.8" font-family="Times,serif" font-size="14.00">data: &#45;6.0000</text>
<polyline fill="none" stroke="black" points="1008,-82.5 1008,-118.5 "/>
<text text-anchor="middle" x="1062" y="-96.8" font-family="Times,serif" font-size="14.00">grad: 0.5000</text>
</g>
<!-- 140109159317216+ -->
<g id="node7" class="node">
<title>140109159317216+</title>
<ellipse fill="none" stroke="black" cx="1179" cy="-127.5" rx="27" ry="18"/>
<text text-anchor="middle" x="1179" y="-123.8" font-family="Times,serif" font-size="14.00">+</text>
</g>
<!-- 140109159317120&#45;&gt;140109159317216+ -->
<g id="edge8" class="edge">
<title>140109159317120&#45;&gt;140109159317216+</title>
<path fill="none" stroke="black" d="M1102.25,-118.51C1116.85,-120.24 1130.51,-121.86 1142.09,-123.24"/>
<polygon fill="black" stroke="black" points="1141.78,-126.73 1152.12,-124.43 1142.6,-119.77 1141.78,-126.73"/>
</g>
<!-- 140109159317120+&#45;&gt;140109159317120 -->
<g id="edge2" class="edge">
<title>140109159317120+&#45;&gt;140109159317120</title>
<path fill="none" stroke="black" d="M747.1,-100.5C754.46,-100.5 763.07,-100.5 772.5,-100.5"/>
<polygon fill="black" stroke="black" points="772.61,-104 782.61,-100.5 772.61,-97 772.61,-104"/>
</g>
<!-- 140109506802880 -->
<g id="node5" class="node">
<title>140109506802880</title>
<polygon fill="none" stroke="black" points="2,-55.5 2,-91.5 255,-91.5 255,-55.5 2,-55.5"/>
<text text-anchor="middle" x="21" y="-69.8" font-family="Times,serif" font-size="14.00">w2</text>
<polyline fill="none" stroke="black" points="40,-55.5 40,-91.5 "/>
<text text-anchor="middle" x="93.5" y="-69.8" font-family="Times,serif" font-size="14.00">data: 1.0000</text>
<polyline fill="none" stroke="black" points="147,-55.5 147,-91.5 "/>
<text text-anchor="middle" x="201" y="-69.8" font-family="Times,serif" font-size="14.00">grad: 0.0000</text>
</g>
<!-- 140109506802880&#45;&gt;140109159317024* -->
<g id="edge9" class="edge">
<title>140109506802880&#45;&gt;140109159317024*</title>
<path fill="none" stroke="black" d="M255.11,-73.5C265.04,-73.5 274.47,-73.5 282.88,-73.5"/>
<polygon fill="black" stroke="black" points="282.96,-77 292.96,-73.5 282.96,-70 282.96,-77"/>
</g>
<!-- 140109159317216 -->
<g id="node6" class="node">
<title>140109159317216</title>
<polygon fill="none" stroke="black" points="1242,-109.5 1242,-145.5 1506,-145.5 1506,-109.5 1242,-109.5"/>
<text text-anchor="middle" x="1266.5" y="-123.8" font-family="Times,serif" font-size="14.00">logit</text>
<polyline fill="none" stroke="black" points="1291,-109.5 1291,-145.5 "/>
<text text-anchor="middle" x="1344.5" y="-123.8" font-family="Times,serif" font-size="14.00">data: 0.8814</text>
<polyline fill="none" stroke="black" points="1398,-109.5 1398,-145.5 "/>
<text text-anchor="middle" x="1452" y="-123.8" font-family="Times,serif" font-size="14.00">grad: 0.5000</text>
</g>
<!-- 140109159317312tanh -->
<g id="node9" class="node">
<title>140109159317312tanh</title>
<ellipse fill="none" stroke="black" cx="1573.85" cy="-127.5" rx="31.7" ry="18"/>
<text text-anchor="middle" x="1573.85" y="-123.8" font-family="Times,serif" font-size="14.00">tanh</text>
</g>
<!-- 140109159317216&#45;&gt;140109159317312tanh -->
<g id="edge7" class="edge">
<title>140109159317216&#45;&gt;140109159317312tanh</title>
<path fill="none" stroke="black" d="M1506.14,-127.5C1515.1,-127.5 1523.67,-127.5 1531.49,-127.5"/>
<polygon fill="black" stroke="black" points="1531.68,-131 1541.68,-127.5 1531.68,-124 1531.68,-131"/>
</g>
<!-- 140109159317216+&#45;&gt;140109159317216 -->
<g id="edge3" class="edge">
<title>140109159317216+&#45;&gt;140109159317216</title>
<path fill="none" stroke="black" d="M1206.03,-127.5C1213.51,-127.5 1222.24,-127.5 1231.71,-127.5"/>
<polygon fill="black" stroke="black" points="1231.82,-131 1241.82,-127.5 1231.82,-124 1231.82,-131"/>
</g>
<!-- 140109159317312 -->
<g id="node8" class="node">
<title>140109159317312</title>
<polygon fill="none" stroke="black" points="1641.69,-109.5 1641.69,-145.5 1882.69,-145.5 1882.69,-109.5 1641.69,-109.5"/>
<text text-anchor="middle" x="1654.69" y="-123.8" font-family="Times,serif" font-size="14.00">L</text>
<polyline fill="none" stroke="black" points="1667.69,-109.5 1667.69,-145.5 "/>
<text text-anchor="middle" x="1721.19" y="-123.8" font-family="Times,serif" font-size="14.00">data: 0.7071</text>
<polyline fill="none" stroke="black" points="1774.69,-109.5 1774.69,-145.5 "/>
<text text-anchor="middle" x="1828.69" y="-123.8" font-family="Times,serif" font-size="14.00">grad: 1.0000</text>
</g>
<!-- 140109159317312tanh&#45;&gt;140109159317312 -->
<g id="edge4" class="edge">
<title>140109159317312tanh&#45;&gt;140109159317312</title>
<path fill="none" stroke="black" d="M1606.04,-127.5C1613.65,-127.5 1622.26,-127.5 1631.45,-127.5"/>
<polygon fill="black" stroke="black" points="1631.61,-131 1641.61,-127.5 1631.61,-124 1631.61,-131"/>
</g>
<!-- 140109159313232 -->
<g id="node10" class="node">
<title>140109159313232</title>
<polygon fill="none" stroke="black" points="829,-137.5 829,-173.5 1070,-173.5 1070,-137.5 829,-137.5"/>
<text text-anchor="middle" x="842" y="-151.8" font-family="Times,serif" font-size="14.00">b</text>
<polyline fill="none" stroke="black" points="855,-137.5 855,-173.5 "/>
<text text-anchor="middle" x="908.5" y="-151.8" font-family="Times,serif" font-size="14.00">data: 6.8814</text>
<polyline fill="none" stroke="black" points="962,-137.5 962,-173.5 "/>
<text text-anchor="middle" x="1016" y="-151.8" font-family="Times,serif" font-size="14.00">grad: 0.5000</text>
</g>
<!-- 140109159313232&#45;&gt;140109159317216+ -->
<g id="edge6" class="edge">
<title>140109159313232&#45;&gt;140109159317216+</title>
<path fill="none" stroke="black" d="M1070.25,-140.76C1096.56,-137.52 1122.45,-134.34 1142.25,-131.9"/>
<polygon fill="black" stroke="black" points="1142.8,-135.36 1152.3,-130.66 1141.95,-128.41 1142.8,-135.36"/>
</g>
<!-- 140109159316976 -->
<g id="node11" class="node">
<title>140109159316976</title>
<polygon fill="none" stroke="black" points="383,-110.5 383,-146.5 657,-146.5 657,-110.5 383,-110.5"/>
<text text-anchor="middle" x="410.5" y="-124.8" font-family="Times,serif" font-size="14.00">x1w1</text>
<polyline fill="none" stroke="black" points="438,-110.5 438,-146.5 "/>
<text text-anchor="middle" x="493.5" y="-124.8" font-family="Times,serif" font-size="14.00">data: &#45;6.0000</text>
<polyline fill="none" stroke="black" points="549,-110.5 549,-146.5 "/>
<text text-anchor="middle" x="603" y="-124.8" font-family="Times,serif" font-size="14.00">grad: 0.5000</text>
</g>
<!-- 140109159316976&#45;&gt;140109159317120+ -->
<g id="edge10" class="edge">
<title>140109159316976&#45;&gt;140109159317120+</title>
<path fill="none" stroke="black" d="M648.36,-110.49C660.95,-108.71 672.87,-107.02 683.21,-105.56"/>
<polygon fill="black" stroke="black" points="683.97,-108.99 693.38,-104.12 682.99,-102.06 683.97,-108.99"/>
</g>
<!-- 140109159316976* -->
<g id="node12" class="node">
<title>140109159316976*</title>
<ellipse fill="none" stroke="black" cx="320" cy="-128.5" rx="27" ry="18"/>
<text text-anchor="middle" x="320" y="-124.8" font-family="Times,serif" font-size="14.00">*</text>
</g>
<!-- 140109159316976*&#45;&gt;140109159316976 -->
<g id="edge5" class="edge">
<title>140109159316976*&#45;&gt;140109159316976</title>
<path fill="none" stroke="black" d="M347.29,-128.5C354.71,-128.5 363.34,-128.5 372.71,-128.5"/>
<polygon fill="black" stroke="black" points="372.72,-132 382.72,-128.5 372.72,-125 372.72,-132"/>
</g>
<!-- 140109508786112 -->
<g id="node13" class="node">
<title>140109508786112</title>
<polygon fill="none" stroke="black" points="0,-165.5 0,-201.5 257,-201.5 257,-165.5 0,-165.5"/>
<text text-anchor="middle" x="19" y="-179.8" font-family="Times,serif" font-size="14.00">w1</text>
<polyline fill="none" stroke="black" points="38,-165.5 38,-201.5 "/>
<text text-anchor="middle" x="93.5" y="-179.8" font-family="Times,serif" font-size="14.00">data: &#45;3.0000</text>
<polyline fill="none" stroke="black" points="149,-165.5 149,-201.5 "/>
<text text-anchor="middle" x="203" y="-179.8" font-family="Times,serif" font-size="14.00">grad: 1.0000</text>
</g>
<!-- 140109508786112&#45;&gt;140109159316976* -->
<g id="edge12" class="edge">
<title>140109508786112&#45;&gt;140109159316976*</title>
<path fill="none" stroke="black" d="M225.82,-165.43C236.43,-162.75 247,-159.77 257,-156.5 267.72,-152.99 279.07,-148.2 289.08,-143.58"/>
<polygon fill="black" stroke="black" points="290.68,-146.7 298.21,-139.25 287.68,-140.37 290.68,-146.7"/>
</g>
<!-- 140109508788176 -->
<g id="node14" class="node">
<title>140109508788176</title>
<polygon fill="none" stroke="black" points="1.5,-110.5 1.5,-146.5 255.5,-146.5 255.5,-110.5 1.5,-110.5"/>
<text text-anchor="middle" x="18.5" y="-124.8" font-family="Times,serif" font-size="14.00">x1</text>
<polyline fill="none" stroke="black" points="35.5,-110.5 35.5,-146.5 "/>
<text text-anchor="middle" x="89" y="-124.8" font-family="Times,serif" font-size="14.00">data: 2.0000</text>
<polyline fill="none" stroke="black" points="142.5,-110.5 142.5,-146.5 "/>
<text text-anchor="middle" x="199" y="-124.8" font-family="Times,serif" font-size="14.00">grad: &#45;1.5000</text>
</g>
<!-- 140109508788176&#45;&gt;140109159316976* -->
<g id="edge13" class="edge">
<title>140109508788176&#45;&gt;140109159316976*</title>
<path fill="none" stroke="black" d="M255.64,-128.5C265.3,-128.5 274.47,-128.5 282.68,-128.5"/>
<polygon fill="black" stroke="black" points="282.89,-132 292.89,-128.5 282.89,-125 282.89,-132"/>
</g>
<!-- 140109508787696 -->
<g id="node15" class="node">
<title>140109508787696</title>
<polygon fill="none" stroke="black" points="4,-0.5 4,-36.5 253,-36.5 253,-0.5 4,-0.5"/>
<text text-anchor="middle" x="21" y="-14.8" font-family="Times,serif" font-size="14.00">x2</text>
<polyline fill="none" stroke="black" points="38,-0.5 38,-36.5 "/>
<text text-anchor="middle" x="91.5" y="-14.8" font-family="Times,serif" font-size="14.00">data: 0.0000</text>
<polyline fill="none" stroke="black" points="145,-0.5 145,-36.5 "/>
<text text-anchor="middle" x="199" y="-14.8" font-family="Times,serif" font-size="14.00">grad: 0.5000</text>
</g>
<!-- 140109508787696&#45;&gt;140109159317024* -->
<g id="edge11" class="edge">
<title>140109508787696&#45;&gt;140109159317024*</title>
<path fill="none" stroke="black" d="M222,-36.58C233.87,-39.55 245.79,-42.87 257,-46.5 267.47,-49.89 278.59,-54.42 288.47,-58.8"/>
<polygon fill="black" stroke="black" points="287.33,-62.12 297.88,-63.08 290.22,-55.75 287.33,-62.12"/>
</g>
</g>
</svg>
